<svg width="18" height="18" viewBox="0 0 18 18" fill="none" xmlns="http://www.w3.org/2000/svg">
    <path fill-rule="evenodd" clip-rule="evenodd" d="M0.75 9.00006C0.75 4.44372 4.44365 0.750059 9 0.750059C13.5563 0.750059 17.25 4.44371 17.25 9.00006C17.25 13.5564 13.5563 17.2501 9 17.2501C4.44364 17.2501 0.75 13.5564 0.75 9.00006ZM9 2.25006C5.27207 2.25006 2.25 5.27214 2.25 9.00006C2.25 12.728 5.27208 15.7501 9 15.7501C12.7279 15.7501 15.75 12.728 15.75 9.00006C15.75 5.27214 12.7279 2.25006 9 2.25006Z" />
    <path fill-rule="evenodd" clip-rule="evenodd" d="M9 5.25006C9.41421 5.25006 9.75 5.58585 9.75 6.00006V9.00006C9.75 9.41427 9.41421 9.75006 9 9.75006C8.58579 9.75006 8.25 9.41427 8.25 9.00006V6.00006C8.25 5.58585 8.58579 5.25006 9 5.25006Z" />
    <path d="M9 12.75C9.41421 12.75 9.75 12.4142 9.75 12C9.75 11.5858 9.41421 11.25 9 11.25C8.58579 11.25 8.25 11.5858 8.25 12C8.25 12.4142 8.58579 12.75 9 12.75Z" />
    </svg>
    