<svg width="14" height="14" viewBox="0 0 14 14" fill="none" xmlns="http://www.w3.org/2000/svg">
    <path d="M5.83325 7.58335C6.34014 8.26101 7.11637 8.6851 7.96046 8.74555C8.80456 8.806 9.6333 8.49686 10.2316 7.89835L11.9816 6.14835C13.0869 5.00392 13.0711 3.18477 11.9461 2.05972C10.821 0.93466 9.00186 0.918852 7.85742 2.02419L6.85409 3.02169" stroke="#422F8A" stroke-opacity="0.87" stroke-width="1.16667" stroke-linecap="round" stroke-linejoin="round"/>
    <path d="M8.16678 6.41673C7.65989 5.73907 6.88367 5.31498 6.03957 5.25453C5.19547 5.19408 4.36674 5.50322 3.76845 6.10173L2.01845 7.85173C0.913115 8.99616 0.928923 10.8153 2.05398 11.9404C3.17904 13.0654 4.99818 13.0812 6.14262 11.9759L7.14012 10.9784" stroke="#422F8A" stroke-opacity="0.87" stroke-width="1.16667" stroke-linecap="round" stroke-linejoin="round"/>
    </svg>
    