<svg width="14" height="4" viewBox="0 0 14 4" fill="none" xmlns="http://www.w3.org/2000/svg">
    <path fill-rule="evenodd" clip-rule="evenodd" d="M7.00016 3.16671C7.64449 3.16671 8.16683 2.64437 8.16683 2.00004C8.16683 1.35571 7.64449 0.833374 7.00016 0.833374C6.35583 0.833374 5.8335 1.35571 5.8335 2.00004C5.8335 2.64437 6.35583 3.16671 7.00016 3.16671Z" stroke="#6B5BA7" stroke-opacity="0.87" stroke-width="1.16667" stroke-linecap="round" stroke-linejoin="round"/>
    <path fill-rule="evenodd" clip-rule="evenodd" d="M11.6667 3.16671C12.311 3.16671 12.8333 2.64437 12.8333 2.00004C12.8333 1.35571 12.311 0.833374 11.6667 0.833374C11.0223 0.833374 10.5 1.35571 10.5 2.00004C10.5 2.64437 11.0223 3.16671 11.6667 3.16671Z" stroke="#6B5BA7" stroke-opacity="0.87" stroke-width="1.16667" stroke-linecap="round" stroke-linejoin="round"/>
    <path fill-rule="evenodd" clip-rule="evenodd" d="M2.33317 3.16671C2.9775 3.16671 3.49984 2.64437 3.49984 2.00004C3.49984 1.35571 2.9775 0.833374 2.33317 0.833374C1.68884 0.833374 1.1665 1.35571 1.1665 2.00004C1.1665 2.64437 1.68884 3.16671 2.33317 3.16671Z" stroke="#6B5BA7" stroke-opacity="0.87" stroke-width="1.16667" stroke-linecap="round" stroke-linejoin="round"/>
    </svg>
    