<svg width="126" height="30" viewBox="0 0 126 30" fill="none" xmlns="http://www.w3.org/2000/svg">
    <rect x="0.5" y="0.5" width="125" height="29" rx="3.5" fill="white"/>
    <rect x="0.5" y="0.5" width="125" height="29" rx="3.5" stroke="#ECE9F1"/>
    <path d="M20.976 10.312V20H19.702V12.776L16.482 20H15.586L12.352 12.762V20H11.078V10.312H12.45L16.034 18.32L19.618 10.312H20.976ZM22.6606 16.136C22.6606 15.352 22.8193 14.666 23.1366 14.078C23.4539 13.4807 23.8879 13.0187 24.4386 12.692C24.9986 12.3653 25.6193 12.202 26.3006 12.202C26.9726 12.202 27.5559 12.3467 28.0506 12.636C28.5453 12.9253 28.9139 13.2893 29.1566 13.728V12.328H30.4446V20H29.1566V18.572C28.9046 19.02 28.5266 19.3933 28.0226 19.692C27.5279 19.9813 26.9493 20.126 26.2866 20.126C25.6053 20.126 24.9893 19.958 24.4386 19.622C23.8879 19.286 23.4539 18.8147 23.1366 18.208C22.8193 17.6013 22.6606 16.9107 22.6606 16.136ZM29.1566 16.15C29.1566 15.5713 29.0399 15.0673 28.8066 14.638C28.5733 14.2087 28.2559 13.882 27.8546 13.658C27.4626 13.4247 27.0286 13.308 26.5526 13.308C26.0766 13.308 25.6426 13.42 25.2506 13.644C24.8586 13.868 24.5459 14.1947 24.3126 14.624C24.0793 15.0533 23.9626 15.5573 23.9626 16.136C23.9626 16.724 24.0793 17.2373 24.3126 17.676C24.5459 18.1053 24.8586 18.4367 25.2506 18.67C25.6426 18.894 26.0766 19.006 26.5526 19.006C27.0286 19.006 27.4626 18.894 27.8546 18.67C28.2559 18.4367 28.5733 18.1053 28.8066 17.676C29.0399 17.2373 29.1566 16.7287 29.1566 16.15ZM33.8715 13.574C34.0955 13.1353 34.4129 12.7947 34.8235 12.552C35.2435 12.3093 35.7522 12.188 36.3495 12.188V13.504H36.0135C34.5855 13.504 33.8715 14.2787 33.8715 15.828V20H32.5975V12.328H33.8715V13.574ZM37.3442 16.15C37.3442 15.3567 37.5029 14.666 37.8202 14.078C38.1375 13.4807 38.5762 13.0187 39.1362 12.692C39.7055 12.3653 40.3542 12.202 41.0822 12.202C42.0249 12.202 42.7995 12.4307 43.4062 12.888C44.0222 13.3453 44.4282 13.98 44.6242 14.792H43.2522C43.1215 14.3253 42.8649 13.9567 42.4822 13.686C42.1089 13.4153 41.6422 13.28 41.0822 13.28C40.3542 13.28 39.7662 13.532 39.3182 14.036C38.8702 14.5307 38.6462 15.2353 38.6462 16.15C38.6462 17.074 38.8702 17.788 39.3182 18.292C39.7662 18.796 40.3542 19.048 41.0822 19.048C41.6422 19.048 42.1089 18.9173 42.4822 18.656C42.8555 18.3947 43.1122 18.0213 43.2522 17.536H44.6242C44.4189 18.32 44.0082 18.95 43.3922 19.426C42.7762 19.8927 42.0062 20.126 41.0822 20.126C40.3542 20.126 39.7055 19.9627 39.1362 19.636C38.5762 19.3093 38.1375 18.8473 37.8202 18.25C37.5029 17.6527 37.3442 16.9527 37.3442 16.15ZM50.1321 12.188C50.7108 12.188 51.2334 12.314 51.7001 12.566C52.1668 12.8087 52.5308 13.1773 52.7921 13.672C53.0628 14.1667 53.1981 14.7687 53.1981 15.478V20H51.9381V15.66C51.9381 14.8947 51.7468 14.3113 51.3641 13.91C50.9814 13.4993 50.4588 13.294 49.7961 13.294C49.1241 13.294 48.5874 13.504 48.1861 13.924C47.7941 14.344 47.5981 14.9553 47.5981 15.758V20H46.3241V9.64H47.5981V13.42C47.8501 13.028 48.1954 12.7247 48.6341 12.51C49.0821 12.2953 49.5814 12.188 50.1321 12.188ZM58.6476 18.978C59.8329 18.026 60.7616 17.2467 61.4336 16.64C62.1056 16.024 62.6703 15.3847 63.1276 14.722C63.5943 14.05 63.8276 13.392 63.8276 12.748C63.8276 12.1413 63.6783 11.6653 63.3796 11.32C63.0903 10.9653 62.6189 10.788 61.9656 10.788C61.3309 10.788 60.8363 10.9887 60.4816 11.39C60.1363 11.782 59.9496 12.3093 59.9216 12.972H58.6896C58.7269 11.9267 59.0443 11.1193 59.6416 10.55C60.2389 9.98067 61.0089 9.696 61.9516 9.696C62.9129 9.696 63.6736 9.962 64.2336 10.494C64.8029 11.026 65.0876 11.7587 65.0876 12.692C65.0876 13.4667 64.8543 14.2227 64.3876 14.96C63.9303 15.688 63.4076 16.332 62.8196 16.892C62.2316 17.4427 61.4803 18.0867 60.5656 18.824H65.3816V19.888H58.6476V18.978ZM66.8543 14.834C66.8543 13.2287 67.1157 11.978 67.6383 11.082C68.161 10.1767 69.0757 9.724 70.3823 9.724C71.6797 9.724 72.5897 10.1767 73.1123 11.082C73.635 11.978 73.8963 13.2287 73.8963 14.834C73.8963 16.4673 73.635 17.7367 73.1123 18.642C72.5897 19.5473 71.6797 20 70.3823 20C69.0757 20 68.161 19.5473 67.6383 18.642C67.1157 17.7367 66.8543 16.4673 66.8543 14.834ZM72.6363 14.834C72.6363 14.022 72.5803 13.336 72.4683 12.776C72.3657 12.2067 72.1463 11.7493 71.8103 11.404C71.4837 11.0587 71.0077 10.886 70.3823 10.886C69.7477 10.886 69.2623 11.0587 68.9263 11.404C68.5997 11.7493 68.3803 12.2067 68.2683 12.776C68.1657 13.336 68.1143 14.022 68.1143 14.834C68.1143 15.674 68.1657 16.3787 68.2683 16.948C68.3803 17.5173 68.5997 17.9747 68.9263 18.32C69.2623 18.6653 69.7477 18.838 70.3823 18.838C71.0077 18.838 71.4837 18.6653 71.8103 18.32C72.1463 17.9747 72.3657 17.5173 72.4683 16.948C72.5803 16.3787 72.6363 15.674 72.6363 14.834ZM75.4913 18.978C76.6767 18.026 77.6053 17.2467 78.2773 16.64C78.9493 16.024 79.514 15.3847 79.9713 14.722C80.438 14.05 80.6713 13.392 80.6713 12.748C80.6713 12.1413 80.522 11.6653 80.2233 11.32C79.934 10.9653 79.4627 10.788 78.8093 10.788C78.1747 10.788 77.68 10.9887 77.3253 11.39C76.98 11.782 76.7933 12.3093 76.7653 12.972H75.5333C75.5707 11.9267 75.888 11.1193 76.4853 10.55C77.0827 9.98067 77.8527 9.696 78.7953 9.696C79.7567 9.696 80.5173 9.962 81.0773 10.494C81.6467 11.026 81.9313 11.7587 81.9313 12.692C81.9313 13.4667 81.698 14.2227 81.2313 14.96C80.774 15.688 80.2513 16.332 79.6633 16.892C79.0753 17.4427 78.324 18.0867 77.4093 18.824H82.2253V19.888H75.4913V18.978ZM83.6981 14.834C83.6981 13.2287 83.9594 11.978 84.4821 11.082C85.0047 10.1767 85.9194 9.724 87.2261 9.724C88.5234 9.724 89.4334 10.1767 89.9561 11.082C90.4787 11.978 90.7401 13.2287 90.7401 14.834C90.7401 16.4673 90.4787 17.7367 89.9561 18.642C89.4334 19.5473 88.5234 20 87.2261 20C85.9194 20 85.0047 19.5473 84.4821 18.642C83.9594 17.7367 83.6981 16.4673 83.6981 14.834ZM89.4801 14.834C89.4801 14.022 89.4241 13.336 89.3121 12.776C89.2094 12.2067 88.9901 11.7493 88.6541 11.404C88.3274 11.0587 87.8514 10.886 87.2261 10.886C86.5914 10.886 86.1061 11.0587 85.7701 11.404C85.4434 11.7493 85.2241 12.2067 85.1121 12.776C85.0094 13.336 84.9581 14.022 84.9581 14.834C84.9581 15.674 85.0094 16.3787 85.1121 16.948C85.2241 17.5173 85.4434 17.9747 85.7701 18.32C86.1061 18.6653 86.5914 18.838 87.2261 18.838C87.8514 18.838 88.3274 18.6653 88.6541 18.32C88.9901 17.9747 89.2094 17.5173 89.3121 16.948C89.4241 16.3787 89.4801 15.674 89.4801 14.834Z" fill="#11263C"/>
    <path fill-rule="evenodd" clip-rule="evenodd" d="M103.75 11.5C103.75 10.8557 104.272 10.3334 104.917 10.3334H113.083C113.728 10.3334 114.25 10.8557 114.25 11.5V19.6667C114.25 20.311 113.728 20.8334 113.083 20.8334H104.917C104.272 20.8334 103.75 20.311 103.75 19.6667V11.5Z" stroke="#422F8A" stroke-opacity="0.87" stroke-width="1.16667" stroke-linecap="round" stroke-linejoin="round"/>
    <path d="M111.333 9.16663V11.5" stroke="#422F8A" stroke-opacity="0.87" stroke-width="1.16667" stroke-linecap="round" stroke-linejoin="round"/>
    <path d="M106.667 9.16663V11.5" stroke="#422F8A" stroke-opacity="0.87" stroke-width="1.16667" stroke-linecap="round" stroke-linejoin="round"/>
    <path d="M103.75 13.8334H114.25" stroke="#422F8A" stroke-opacity="0.87" stroke-width="1.16667" stroke-linecap="round" stroke-linejoin="round"/>
    </svg>
    