<svg width="282" height="308" viewBox="0 0 282 308" fill="none" xmlns="http://www.w3.org/2000/svg">
    <g filter="url(#filter0_dd_634_469)">
    <g clip-path="url(#clip0_634_469)">
    <rect x="16" y="8" width="250" height="275.2" rx="20" fill="white"/>
    <path d="M26 42C26 28.7452 36.7452 18 50 18C63.2548 18 74 28.7452 74 42C74 55.2548 63.2548 66 50 66C36.7452 66 26 55.2548 26 42Z" fill="white"/>
    <path d="M50.0001 35.6213C51.953 35.6213 53.2704 36.4649 54.0215 37.1698L56.9566 34.304C55.1539 32.6284 52.8081 31.6 50.0001 31.6C45.9326 31.6 42.4197 33.9342 40.7095 37.3315L44.0721 39.9431C44.9157 37.4355 47.2499 35.6213 50.0001 35.6213Z" fill="#EA4335"/>
    <path d="M59.984 42.2311C59.984 41.376 59.9147 40.752 59.7644 40.1049H50V43.9644H55.7316C55.616 44.9235 54.992 46.368 53.6053 47.3386L56.8871 49.8809C58.8516 48.0666 59.984 45.3973 59.984 42.2311Z" fill="#4285F4"/>
    <path d="M44.0837 44.0569C43.8641 43.4098 43.737 42.7164 43.737 42C43.737 41.2835 43.8641 40.5902 44.0721 39.9431L40.7094 37.3315C40.0045 38.7413 39.6001 40.3244 39.6001 42C39.6001 43.6755 40.0045 45.2587 40.7094 46.6684L44.0837 44.0569Z" fill="#FBBC05"/>
    <path d="M50.0001 52.4C52.8081 52.4 55.1654 51.4756 56.8872 49.8809L53.6054 47.3387C52.7272 47.9511 51.5485 48.3787 50.0001 48.3787C47.2498 48.3787 44.9156 46.5644 44.0836 44.0569L40.7209 46.6684C42.4312 50.0658 45.9325 52.4 50.0001 52.4Z" fill="#34A853"/>
    <g clip-path="url(#clip1_634_469)">
    <path d="M110.172 36.098C109.528 36.098 108.949 35.986 108.436 35.762C107.932 35.5287 107.535 35.2113 107.246 34.81C106.957 34.3993 106.807 33.928 106.798 33.396H108.156C108.203 33.8533 108.389 34.2407 108.716 34.558C109.052 34.866 109.537 35.02 110.172 35.02C110.779 35.02 111.255 34.8707 111.6 34.572C111.955 34.264 112.132 33.872 112.132 33.396C112.132 33.0227 112.029 32.7193 111.824 32.486C111.619 32.2527 111.362 32.0753 111.054 31.954C110.746 31.8327 110.331 31.702 109.808 31.562C109.164 31.394 108.646 31.226 108.254 31.058C107.871 30.89 107.54 30.6287 107.26 30.274C106.989 29.91 106.854 29.4247 106.854 28.818C106.854 28.286 106.989 27.8147 107.26 27.404C107.531 26.9933 107.909 26.676 108.394 26.452C108.889 26.228 109.453 26.116 110.088 26.116C111.003 26.116 111.749 26.3447 112.328 26.802C112.916 27.2593 113.247 27.866 113.322 28.622H111.922C111.875 28.2487 111.679 27.922 111.334 27.642C110.989 27.3527 110.531 27.208 109.962 27.208C109.43 27.208 108.996 27.348 108.66 27.628C108.324 27.8987 108.156 28.2813 108.156 28.776C108.156 29.1307 108.254 29.42 108.45 29.644C108.655 29.868 108.903 30.0407 109.192 30.162C109.491 30.274 109.906 30.4047 110.438 30.554C111.082 30.7313 111.6 30.9087 111.992 31.086C112.384 31.254 112.72 31.52 113 31.884C113.28 32.2387 113.42 32.724 113.42 33.34C113.42 33.816 113.294 34.264 113.042 34.684C112.79 35.104 112.417 35.4447 111.922 35.706C111.427 35.9673 110.844 36.098 110.172 36.098ZM116.849 29.378V33.9C116.849 34.2733 116.928 34.5393 117.087 34.698C117.245 34.8473 117.521 34.922 117.913 34.922H118.851V36H117.703C116.993 36 116.461 35.8367 116.107 35.51C115.752 35.1833 115.575 34.6467 115.575 33.9V29.378H114.581V28.328H115.575V26.396H116.849V28.328H118.851V29.378H116.849ZM123.74 36.126C123.022 36.126 122.368 35.9627 121.78 35.636C121.202 35.3093 120.744 34.8473 120.408 34.25C120.082 33.6433 119.918 32.9433 119.918 32.15C119.918 31.366 120.086 30.6753 120.422 30.078C120.768 29.4713 121.234 29.0093 121.822 28.692C122.41 28.3653 123.068 28.202 123.796 28.202C124.524 28.202 125.182 28.3653 125.77 28.692C126.358 29.0093 126.82 29.4667 127.156 30.064C127.502 30.6613 127.674 31.3567 127.674 32.15C127.674 32.9433 127.497 33.6433 127.142 34.25C126.797 34.8473 126.326 35.3093 125.728 35.636C125.131 35.9627 124.468 36.126 123.74 36.126ZM123.74 35.006C124.198 35.006 124.627 34.8987 125.028 34.684C125.43 34.4693 125.752 34.1473 125.994 33.718C126.246 33.2887 126.372 32.766 126.372 32.15C126.372 31.534 126.251 31.0113 126.008 30.582C125.766 30.1527 125.448 29.8353 125.056 29.63C124.664 29.4153 124.24 29.308 123.782 29.308C123.316 29.308 122.886 29.4153 122.494 29.63C122.112 29.8353 121.804 30.1527 121.57 30.582C121.337 31.0113 121.22 31.534 121.22 32.15C121.22 32.7753 121.332 33.3027 121.556 33.732C121.79 34.1613 122.098 34.4833 122.48 34.698C122.863 34.9033 123.283 35.006 123.74 35.006ZM128.873 32.15C128.873 31.3567 129.032 30.666 129.349 30.078C129.667 29.4807 130.105 29.0187 130.665 28.692C131.235 28.3653 131.883 28.202 132.611 28.202C133.554 28.202 134.329 28.4307 134.935 28.888C135.551 29.3453 135.957 29.98 136.153 30.792H134.781C134.651 30.3253 134.394 29.9567 134.011 29.686C133.638 29.4153 133.171 29.28 132.611 29.28C131.883 29.28 131.295 29.532 130.847 30.036C130.399 30.5307 130.175 31.2353 130.175 32.15C130.175 33.074 130.399 33.788 130.847 34.292C131.295 34.796 131.883 35.048 132.611 35.048C133.171 35.048 133.638 34.9173 134.011 34.656C134.385 34.3947 134.641 34.0213 134.781 33.536H136.153C135.948 34.32 135.537 34.95 134.921 35.426C134.305 35.8927 133.535 36.126 132.611 36.126C131.883 36.126 131.235 35.9627 130.665 35.636C130.105 35.3093 129.667 34.8473 129.349 34.25C129.032 33.6527 128.873 32.9527 128.873 32.15ZM142.137 36L139.127 32.612V36H137.853V25.64H139.127V31.73L142.081 28.328H143.859L140.247 32.15L143.873 36H142.137ZM150.345 29.378V33.9C150.345 34.2733 150.424 34.5393 150.583 34.698C150.742 34.8473 151.017 34.922 151.409 34.922H152.347V36H151.199C150.49 36 149.958 35.8367 149.603 35.51C149.248 35.1833 149.071 34.6467 149.071 33.9V29.378H148.077V28.328H149.071V26.396H150.345V28.328H152.347V29.378H150.345ZM155.165 29.574C155.389 29.1353 155.706 28.7947 156.117 28.552C156.537 28.3093 157.045 28.188 157.643 28.188V29.504H157.307C155.879 29.504 155.165 30.2787 155.165 31.828V36H153.891V28.328H155.165V29.574ZM158.637 32.136C158.637 31.352 158.796 30.666 159.113 30.078C159.43 29.4807 159.864 29.0187 160.415 28.692C160.975 28.3653 161.596 28.202 162.277 28.202C162.949 28.202 163.532 28.3467 164.027 28.636C164.522 28.9253 164.89 29.2893 165.133 29.728V28.328H166.421V36H165.133V34.572C164.881 35.02 164.503 35.3933 163.999 35.692C163.504 35.9813 162.926 36.126 162.263 36.126C161.582 36.126 160.966 35.958 160.415 35.622C159.864 35.286 159.43 34.8147 159.113 34.208C158.796 33.6013 158.637 32.9107 158.637 32.136ZM165.133 32.15C165.133 31.5713 165.016 31.0673 164.783 30.638C164.55 30.2087 164.232 29.882 163.831 29.658C163.439 29.4247 163.005 29.308 162.529 29.308C162.053 29.308 161.619 29.42 161.227 29.644C160.835 29.868 160.522 30.1947 160.289 30.624C160.056 31.0533 159.939 31.5573 159.939 32.136C159.939 32.724 160.056 33.2373 160.289 33.676C160.522 34.1053 160.835 34.4367 161.227 34.67C161.619 34.894 162.053 35.006 162.529 35.006C163.005 35.006 163.439 34.894 163.831 34.67C164.232 34.4367 164.55 34.1053 164.783 33.676C165.016 33.2373 165.133 32.7287 165.133 32.15ZM168.098 32.136C168.098 31.352 168.257 30.666 168.574 30.078C168.891 29.4807 169.325 29.0187 169.876 28.692C170.436 28.3653 171.061 28.202 171.752 28.202C172.349 28.202 172.905 28.342 173.418 28.622C173.931 28.8927 174.323 29.252 174.594 29.7V25.64H175.882V36H174.594V34.558C174.342 35.0153 173.969 35.3933 173.474 35.692C172.979 35.9813 172.401 36.126 171.738 36.126C171.057 36.126 170.436 35.958 169.876 35.622C169.325 35.286 168.891 34.8147 168.574 34.208C168.257 33.6013 168.098 32.9107 168.098 32.136ZM174.594 32.15C174.594 31.5713 174.477 31.0673 174.244 30.638C174.011 30.2087 173.693 29.882 173.292 29.658C172.9 29.4247 172.466 29.308 171.99 29.308C171.514 29.308 171.08 29.42 170.688 29.644C170.296 29.868 169.983 30.1947 169.75 30.624C169.517 31.0533 169.4 31.5573 169.4 32.136C169.4 32.724 169.517 33.2373 169.75 33.676C169.983 34.1053 170.296 34.4367 170.688 34.67C171.08 34.894 171.514 35.006 171.99 35.006C172.466 35.006 172.9 34.894 173.292 34.67C173.693 34.4367 174.011 34.1053 174.244 33.676C174.477 33.2373 174.594 32.7287 174.594 32.15ZM178.693 27.082C178.45 27.082 178.245 26.998 178.077 26.83C177.909 26.662 177.825 26.4567 177.825 26.214C177.825 25.9713 177.909 25.766 178.077 25.598C178.245 25.43 178.45 25.346 178.693 25.346C178.926 25.346 179.122 25.43 179.281 25.598C179.449 25.766 179.533 25.9713 179.533 26.214C179.533 26.4567 179.449 26.662 179.281 26.83C179.122 26.998 178.926 27.082 178.693 27.082ZM179.309 28.328V36H178.035V28.328H179.309ZM185.218 28.188C186.152 28.188 186.908 28.4727 187.486 29.042C188.065 29.602 188.354 30.414 188.354 31.478V36H187.094V31.66C187.094 30.8947 186.903 30.3113 186.52 29.91C186.138 29.4993 185.615 29.294 184.952 29.294C184.28 29.294 183.744 29.504 183.342 29.924C182.95 30.344 182.754 30.9553 182.754 31.758V36H181.48V28.328H182.754V29.42C183.006 29.028 183.347 28.7247 183.776 28.51C184.215 28.2953 184.696 28.188 185.218 28.188ZM193.599 28.202C194.262 28.202 194.841 28.3467 195.335 28.636C195.839 28.9253 196.213 29.2893 196.455 29.728V28.328H197.743V36.168C197.743 36.868 197.594 37.4887 197.295 38.03C196.997 38.5807 196.567 39.01 196.007 39.318C195.457 39.626 194.813 39.78 194.075 39.78C193.067 39.78 192.227 39.542 191.555 39.066C190.883 38.59 190.487 37.9413 190.365 37.12H191.625C191.765 37.5867 192.055 37.96 192.493 38.24C192.932 38.5293 193.459 38.674 194.075 38.674C194.775 38.674 195.345 38.4547 195.783 38.016C196.231 37.5773 196.455 36.9613 196.455 36.168V34.558C196.203 35.006 195.83 35.3793 195.335 35.678C194.841 35.9767 194.262 36.126 193.599 36.126C192.918 36.126 192.297 35.958 191.737 35.622C191.187 35.286 190.753 34.8147 190.435 34.208C190.118 33.6013 189.959 32.9107 189.959 32.136C189.959 31.352 190.118 30.666 190.435 30.078C190.753 29.4807 191.187 29.0187 191.737 28.692C192.297 28.3653 192.918 28.202 193.599 28.202ZM196.455 32.15C196.455 31.5713 196.339 31.0673 196.105 30.638C195.872 30.2087 195.555 29.882 195.153 29.658C194.761 29.4247 194.327 29.308 193.851 29.308C193.375 29.308 192.941 29.42 192.549 29.644C192.157 29.868 191.845 30.1947 191.611 30.624C191.378 31.0533 191.261 31.5573 191.261 32.136C191.261 32.724 191.378 33.2373 191.611 33.676C191.845 34.1053 192.157 34.4367 192.549 34.67C192.941 34.894 193.375 35.006 193.851 35.006C194.327 35.006 194.761 34.894 195.153 34.67C195.555 34.4367 195.872 34.1053 196.105 33.676C196.339 33.2373 196.455 32.7287 196.455 32.15Z" fill="#D0D1D2"/>
    <path d="M113.77 51.168C113.546 50.7573 113.238 50.4447 112.846 50.23C112.454 50.0153 111.997 49.908 111.474 49.908C110.895 49.908 110.382 50.0387 109.934 50.3C109.486 50.5613 109.136 50.9347 108.884 51.42C108.632 51.9053 108.506 52.4653 108.506 53.1C108.506 53.7533 108.632 54.3227 108.884 54.808C109.145 55.2933 109.505 55.6667 109.962 55.928C110.419 56.1893 110.951 56.32 111.558 56.32C112.305 56.32 112.916 56.124 113.392 55.732C113.868 55.3307 114.181 54.7753 114.33 54.066H110.97V52.568H116.262V54.276C116.131 54.9573 115.851 55.5873 115.422 56.166C114.993 56.7447 114.437 57.2113 113.756 57.566C113.084 57.9113 112.328 58.084 111.488 58.084C110.545 58.084 109.691 57.874 108.926 57.454C108.17 57.0247 107.573 56.432 107.134 55.676C106.705 54.92 106.49 54.0613 106.49 53.1C106.49 52.1387 106.705 51.28 107.134 50.524C107.573 49.7587 108.17 49.166 108.926 48.746C109.691 48.3167 110.541 48.102 111.474 48.102C112.575 48.102 113.532 48.3727 114.344 48.914C115.156 49.446 115.716 50.1973 116.024 51.168H113.77ZM121.156 58.126C120.409 58.126 119.737 57.9627 119.14 57.636C118.543 57.3 118.071 56.8287 117.726 56.222C117.39 55.6153 117.222 54.9153 117.222 54.122C117.222 53.3287 117.395 52.6287 117.74 52.022C118.095 51.4153 118.575 50.9487 119.182 50.622C119.789 50.286 120.465 50.118 121.212 50.118C121.959 50.118 122.635 50.286 123.242 50.622C123.849 50.9487 124.325 51.4153 124.67 52.022C125.025 52.6287 125.202 53.3287 125.202 54.122C125.202 54.9153 125.02 55.6153 124.656 56.222C124.301 56.8287 123.816 57.3 123.2 57.636C122.593 57.9627 121.912 58.126 121.156 58.126ZM121.156 56.418C121.511 56.418 121.842 56.334 122.15 56.166C122.467 55.9887 122.719 55.7273 122.906 55.382C123.093 55.0367 123.186 54.6167 123.186 54.122C123.186 53.3847 122.99 52.82 122.598 52.428C122.215 52.0267 121.744 51.826 121.184 51.826C120.624 51.826 120.153 52.0267 119.77 52.428C119.397 52.82 119.21 53.3847 119.21 54.122C119.21 54.8593 119.392 55.4287 119.756 55.83C120.129 56.222 120.596 56.418 121.156 56.418ZM130.084 58.126C129.337 58.126 128.665 57.9627 128.068 57.636C127.47 57.3 126.999 56.8287 126.654 56.222C126.318 55.6153 126.15 54.9153 126.15 54.122C126.15 53.3287 126.322 52.6287 126.668 52.022C127.022 51.4153 127.503 50.9487 128.11 50.622C128.716 50.286 129.393 50.118 130.14 50.118C130.886 50.118 131.563 50.286 132.17 50.622C132.776 50.9487 133.252 51.4153 133.598 52.022C133.952 52.6287 134.13 53.3287 134.13 54.122C134.13 54.9153 133.948 55.6153 133.584 56.222C133.229 56.8287 132.744 57.3 132.128 57.636C131.521 57.9627 130.84 58.126 130.084 58.126ZM130.084 56.418C130.438 56.418 130.77 56.334 131.078 56.166C131.395 55.9887 131.647 55.7273 131.834 55.382C132.02 55.0367 132.114 54.6167 132.114 54.122C132.114 53.3847 131.918 52.82 131.526 52.428C131.143 52.0267 130.672 51.826 130.112 51.826C129.552 51.826 129.08 52.0267 128.698 52.428C128.324 52.82 128.138 53.3847 128.138 54.122C128.138 54.8593 128.32 55.4287 128.684 55.83C129.057 56.222 129.524 56.418 130.084 56.418ZM138.606 50.118C139.184 50.118 139.693 50.2347 140.132 50.468C140.57 50.692 140.916 50.986 141.168 51.35V50.244H143.142V58.056C143.142 58.7747 142.997 59.414 142.708 59.974C142.418 60.5433 141.984 60.9913 141.406 61.318C140.827 61.654 140.127 61.822 139.306 61.822C138.204 61.822 137.299 61.5653 136.59 61.052C135.89 60.5387 135.493 59.8387 135.4 58.952H137.346C137.448 59.3067 137.668 59.5867 138.004 59.792C138.349 60.0067 138.764 60.114 139.25 60.114C139.819 60.114 140.281 59.9413 140.636 59.596C140.99 59.26 141.168 58.7467 141.168 58.056V56.852C140.916 57.216 140.566 57.5193 140.118 57.762C139.679 58.0047 139.175 58.126 138.606 58.126C137.952 58.126 137.355 57.958 136.814 57.622C136.272 57.286 135.843 56.8147 135.526 56.208C135.218 55.592 135.064 54.8873 135.064 54.094C135.064 53.31 135.218 52.6147 135.526 52.008C135.843 51.4013 136.268 50.9347 136.8 50.608C137.341 50.2813 137.943 50.118 138.606 50.118ZM141.168 54.122C141.168 53.646 141.074 53.24 140.888 52.904C140.701 52.5587 140.449 52.2973 140.132 52.12C139.814 51.9333 139.474 51.84 139.11 51.84C138.746 51.84 138.41 51.9287 138.102 52.106C137.794 52.2833 137.542 52.5447 137.346 52.89C137.159 53.226 137.066 53.6273 137.066 54.094C137.066 54.5607 137.159 54.9713 137.346 55.326C137.542 55.6713 137.794 55.9373 138.102 56.124C138.419 56.3107 138.755 56.404 139.11 56.404C139.474 56.404 139.814 56.3153 140.132 56.138C140.449 55.9513 140.701 55.69 140.888 55.354C141.074 55.0087 141.168 54.598 141.168 54.122ZM147.016 47.64V58H145.056V47.64H147.016ZM156.162 53.954C156.162 54.234 156.144 54.486 156.106 54.71H150.436C150.483 55.27 150.679 55.7087 151.024 56.026C151.37 56.3433 151.794 56.502 152.298 56.502C153.026 56.502 153.544 56.1893 153.852 55.564H155.966C155.742 56.3107 155.313 56.9267 154.678 57.412C154.044 57.888 153.264 58.126 152.34 58.126C151.594 58.126 150.922 57.9627 150.324 57.636C149.736 57.3 149.274 56.8287 148.938 56.222C148.612 55.6153 148.448 54.9153 148.448 54.122C148.448 53.3193 148.612 52.6147 148.938 52.008C149.265 51.4013 149.722 50.9347 150.31 50.608C150.898 50.2813 151.575 50.118 152.34 50.118C153.078 50.118 153.736 50.2767 154.314 50.594C154.902 50.9113 155.355 51.364 155.672 51.952C155.999 52.5307 156.162 53.198 156.162 53.954ZM154.132 53.394C154.123 52.89 153.941 52.4887 153.586 52.19C153.232 51.882 152.798 51.728 152.284 51.728C151.799 51.728 151.388 51.8773 151.052 52.176C150.726 52.4653 150.525 52.8713 150.45 53.394H154.132Z" fill="#11263C"/>
    </g>
    <line x1="106.007" y1="75.5" x2="266.003" y2="76.5667" stroke="#ECE9F1"/>
    <g clip-path="url(#clip2_634_469)">
    <rect x="26" y="87.0667" width="48" height="48" rx="20" fill="#FA4778"/>
    <path d="M26 111.067C26 97.8118 36.7452 87.0667 50 87.0667C63.2548 87.0667 74 97.8118 74 111.067C74 124.321 63.2548 135.067 50 135.067C36.7452 135.067 26 124.321 26 111.067Z" fill="#FA4778"/>
    <path fill-rule="evenodd" clip-rule="evenodd" d="M43.6437 98.2667H57.3393C59.3435 98.2667 59.8885 99.4222 59.4666 101.591C58.904 104.4 57.0932 113.289 56.9349 113.911C56.7415 114.657 56.4075 115.884 54.6494 115.884H50.5355C50.4651 115.884 50.4124 115.884 50.3069 116.009C50.2014 116.133 43.6964 123.795 43.6964 123.795C43.1339 124.364 42.3427 124.275 42.0438 124.151C41.745 124.026 41.2 123.706 41.2 122.622V100.613C41.2 99.7067 41.7625 98.2667 43.6437 98.2667ZM55.9152 105.022L56.5306 102.018C56.6361 101.52 56.2493 101.129 55.8625 101.129H44.7689C44.3645 101.129 44.0305 101.467 44.0305 101.875V119.28C44.0305 119.333 44.0657 119.351 44.1008 119.297C44.1008 119.297 48.1444 114.178 48.6015 113.609C49.0586 113.04 49.2169 113.022 49.9904 113.004H53.6824C54.1044 113.004 54.3857 112.666 54.4208 112.4C54.4736 112.151 54.9483 109.804 55.0362 109.342C55.1241 108.898 54.7725 108.489 54.3505 108.489H49.8322C49.2344 108.489 48.7422 107.991 48.7422 107.387V106.729C48.7422 106.124 49.2344 105.627 49.8322 105.627H55.1768C55.546 105.627 55.8449 105.342 55.9152 105.022Z" fill="white"/>
    <g clip-path="url(#clip3_634_469)">
    <path d="M110.172 105.165C109.528 105.165 108.949 105.053 108.436 104.829C107.932 104.595 107.535 104.278 107.246 103.877C106.957 103.466 106.807 102.995 106.798 102.463H108.156C108.203 102.92 108.389 103.307 108.716 103.625C109.052 103.933 109.537 104.087 110.172 104.087C110.779 104.087 111.255 103.937 111.6 103.639C111.955 103.331 112.132 102.939 112.132 102.463C112.132 102.089 112.029 101.786 111.824 101.553C111.619 101.319 111.362 101.142 111.054 101.021C110.746 100.899 110.331 100.769 109.808 100.629C109.164 100.461 108.646 100.293 108.254 100.125C107.871 99.9567 107.54 99.6953 107.26 99.3407C106.989 98.9767 106.854 98.4913 106.854 97.8847C106.854 97.3526 106.989 96.8813 107.26 96.4707C107.531 96.06 107.909 95.7426 108.394 95.5186C108.889 95.2946 109.453 95.1826 110.088 95.1826C111.003 95.1826 111.749 95.4113 112.328 95.8687C112.916 96.326 113.247 96.9326 113.322 97.6887H111.922C111.875 97.3153 111.679 96.9887 111.334 96.7087C110.989 96.4193 110.531 96.2747 109.962 96.2747C109.43 96.2747 108.996 96.4146 108.66 96.6946C108.324 96.9653 108.156 97.348 108.156 97.8426C108.156 98.1973 108.254 98.4867 108.45 98.7107C108.655 98.9347 108.903 99.1073 109.192 99.2287C109.491 99.3406 109.906 99.4713 110.438 99.6206C111.082 99.798 111.6 99.9753 111.992 100.153C112.384 100.321 112.72 100.587 113 100.951C113.28 101.305 113.42 101.791 113.42 102.407C113.42 102.883 113.294 103.331 113.042 103.751C112.79 104.171 112.417 104.511 111.922 104.773C111.427 105.034 110.844 105.165 110.172 105.165ZM116.849 98.4447V102.967C116.849 103.34 116.928 103.606 117.087 103.765C117.245 103.914 117.521 103.989 117.913 103.989H118.851V105.067H117.703C116.993 105.067 116.461 104.903 116.107 104.577C115.752 104.25 115.575 103.713 115.575 102.967V98.4447H114.581V97.3946H115.575V95.4626H116.849V97.3946H118.851V98.4447H116.849ZM123.74 105.193C123.022 105.193 122.368 105.029 121.78 104.703C121.202 104.376 120.744 103.914 120.408 103.317C120.082 102.71 119.918 102.01 119.918 101.217C119.918 100.433 120.086 99.742 120.422 99.1447C120.768 98.538 121.234 98.076 121.822 97.7587C122.41 97.432 123.068 97.2686 123.796 97.2686C124.524 97.2686 125.182 97.432 125.77 97.7587C126.358 98.076 126.82 98.5333 127.156 99.1307C127.502 99.728 127.674 100.423 127.674 101.217C127.674 102.01 127.497 102.71 127.142 103.317C126.797 103.914 126.326 104.376 125.728 104.703C125.131 105.029 124.468 105.193 123.74 105.193ZM123.74 104.073C124.198 104.073 124.627 103.965 125.028 103.751C125.43 103.536 125.752 103.214 125.994 102.785C126.246 102.355 126.372 101.833 126.372 101.217C126.372 100.601 126.251 100.078 126.008 99.6487C125.766 99.2193 125.448 98.902 125.056 98.6967C124.664 98.482 124.24 98.3747 123.782 98.3747C123.316 98.3747 122.886 98.482 122.494 98.6967C122.112 98.902 121.804 99.2193 121.57 99.6487C121.337 100.078 121.22 100.601 121.22 101.217C121.22 101.842 121.332 102.369 121.556 102.799C121.79 103.228 122.098 103.55 122.48 103.765C122.863 103.97 123.283 104.073 123.74 104.073ZM128.873 101.217C128.873 100.423 129.032 99.7327 129.349 99.1447C129.667 98.5473 130.105 98.0853 130.665 97.7587C131.235 97.432 131.883 97.2686 132.611 97.2686C133.554 97.2686 134.329 97.4973 134.935 97.9547C135.551 98.412 135.957 99.0467 136.153 99.8587H134.781C134.651 99.392 134.394 99.0233 134.011 98.7526C133.638 98.482 133.171 98.3467 132.611 98.3467C131.883 98.3467 131.295 98.5987 130.847 99.1026C130.399 99.5973 130.175 100.302 130.175 101.217C130.175 102.141 130.399 102.855 130.847 103.359C131.295 103.863 131.883 104.115 132.611 104.115C133.171 104.115 133.638 103.984 134.011 103.723C134.385 103.461 134.641 103.088 134.781 102.603H136.153C135.948 103.387 135.537 104.017 134.921 104.493C134.305 104.959 133.535 105.193 132.611 105.193C131.883 105.193 131.235 105.029 130.665 104.703C130.105 104.376 129.667 103.914 129.349 103.317C129.032 102.719 128.873 102.019 128.873 101.217ZM142.137 105.067L139.127 101.679V105.067H137.853V94.7067H139.127V100.797L142.081 97.3946H143.859L140.247 101.217L143.873 105.067H142.137ZM150.345 98.4447V102.967C150.345 103.34 150.424 103.606 150.583 103.765C150.742 103.914 151.017 103.989 151.409 103.989H152.347V105.067H151.199C150.49 105.067 149.958 104.903 149.603 104.577C149.248 104.25 149.071 103.713 149.071 102.967V98.4447H148.077V97.3946H149.071V95.4626H150.345V97.3946H152.347V98.4447H150.345ZM155.165 98.6407C155.389 98.202 155.706 97.8613 156.117 97.6187C156.537 97.376 157.045 97.2546 157.643 97.2546V98.5707H157.307C155.879 98.5707 155.165 99.3453 155.165 100.895V105.067H153.891V97.3946H155.165V98.6407ZM158.637 101.203C158.637 100.419 158.796 99.7327 159.113 99.1447C159.43 98.5473 159.864 98.0853 160.415 97.7587C160.975 97.432 161.596 97.2686 162.277 97.2686C162.949 97.2686 163.532 97.4133 164.027 97.7027C164.522 97.992 164.89 98.356 165.133 98.7947V97.3946H166.421V105.067H165.133V103.639C164.881 104.087 164.503 104.46 163.999 104.759C163.504 105.048 162.926 105.193 162.263 105.193C161.582 105.193 160.966 105.025 160.415 104.689C159.864 104.353 159.43 103.881 159.113 103.275C158.796 102.668 158.637 101.977 158.637 101.203ZM165.133 101.217C165.133 100.638 165.016 100.134 164.783 99.7047C164.55 99.2753 164.232 98.9487 163.831 98.7247C163.439 98.4913 163.005 98.3747 162.529 98.3747C162.053 98.3747 161.619 98.4867 161.227 98.7107C160.835 98.9347 160.522 99.2613 160.289 99.6907C160.056 100.12 159.939 100.624 159.939 101.203C159.939 101.791 160.056 102.304 160.289 102.743C160.522 103.172 160.835 103.503 161.227 103.737C161.619 103.961 162.053 104.073 162.529 104.073C163.005 104.073 163.439 103.961 163.831 103.737C164.232 103.503 164.55 103.172 164.783 102.743C165.016 102.304 165.133 101.795 165.133 101.217ZM168.098 101.203C168.098 100.419 168.257 99.7327 168.574 99.1447C168.891 98.5473 169.325 98.0853 169.876 97.7587C170.436 97.432 171.061 97.2686 171.752 97.2686C172.349 97.2686 172.905 97.4086 173.418 97.6887C173.931 97.9593 174.323 98.3187 174.594 98.7667V94.7067H175.882V105.067H174.594V103.625C174.342 104.082 173.969 104.46 173.474 104.759C172.979 105.048 172.401 105.193 171.738 105.193C171.057 105.193 170.436 105.025 169.876 104.689C169.325 104.353 168.891 103.881 168.574 103.275C168.257 102.668 168.098 101.977 168.098 101.203ZM174.594 101.217C174.594 100.638 174.477 100.134 174.244 99.7047C174.011 99.2753 173.693 98.9487 173.292 98.7247C172.9 98.4913 172.466 98.3747 171.99 98.3747C171.514 98.3747 171.08 98.4867 170.688 98.7107C170.296 98.9347 169.983 99.2613 169.75 99.6907C169.517 100.12 169.4 100.624 169.4 101.203C169.4 101.791 169.517 102.304 169.75 102.743C169.983 103.172 170.296 103.503 170.688 103.737C171.08 103.961 171.514 104.073 171.99 104.073C172.466 104.073 172.9 103.961 173.292 103.737C173.693 103.503 174.011 103.172 174.244 102.743C174.477 102.304 174.594 101.795 174.594 101.217ZM178.693 96.1487C178.45 96.1487 178.245 96.0647 178.077 95.8966C177.909 95.7286 177.825 95.5233 177.825 95.2806C177.825 95.038 177.909 94.8327 178.077 94.6646C178.245 94.4966 178.45 94.4126 178.693 94.4126C178.926 94.4126 179.122 94.4966 179.281 94.6646C179.449 94.8327 179.533 95.038 179.533 95.2806C179.533 95.5233 179.449 95.7286 179.281 95.8966C179.122 96.0647 178.926 96.1487 178.693 96.1487ZM179.309 97.3946V105.067H178.035V97.3946H179.309ZM185.218 97.2546C186.152 97.2546 186.908 97.5393 187.486 98.1087C188.065 98.6687 188.354 99.4807 188.354 100.545V105.067H187.094V100.727C187.094 99.9613 186.903 99.378 186.52 98.9766C186.138 98.566 185.615 98.3606 184.952 98.3606C184.28 98.3606 183.744 98.5707 183.342 98.9907C182.95 99.4107 182.754 100.022 182.754 100.825V105.067H181.48V97.3946H182.754V98.4866C183.006 98.0947 183.347 97.7913 183.776 97.5767C184.215 97.362 184.696 97.2546 185.218 97.2546ZM193.599 97.2686C194.262 97.2686 194.841 97.4133 195.335 97.7027C195.839 97.992 196.213 98.356 196.455 98.7947V97.3946H197.743V105.235C197.743 105.935 197.594 106.555 197.295 107.097C196.997 107.647 196.567 108.077 196.007 108.385C195.457 108.693 194.813 108.847 194.075 108.847C193.067 108.847 192.227 108.609 191.555 108.133C190.883 107.657 190.487 107.008 190.365 106.187H191.625C191.765 106.653 192.055 107.027 192.493 107.307C192.932 107.596 193.459 107.741 194.075 107.741C194.775 107.741 195.345 107.521 195.783 107.083C196.231 106.644 196.455 106.028 196.455 105.235V103.625C196.203 104.073 195.83 104.446 195.335 104.745C194.841 105.043 194.262 105.193 193.599 105.193C192.918 105.193 192.297 105.025 191.737 104.689C191.187 104.353 190.753 103.881 190.435 103.275C190.118 102.668 189.959 101.977 189.959 101.203C189.959 100.419 190.118 99.7327 190.435 99.1447C190.753 98.5473 191.187 98.0853 191.737 97.7587C192.297 97.432 192.918 97.2686 193.599 97.2686ZM196.455 101.217C196.455 100.638 196.339 100.134 196.105 99.7047C195.872 99.2753 195.555 98.9487 195.153 98.7247C194.761 98.4913 194.327 98.3747 193.851 98.3747C193.375 98.3747 192.941 98.4867 192.549 98.7107C192.157 98.9347 191.845 99.2613 191.611 99.6907C191.378 100.12 191.261 100.624 191.261 101.203C191.261 101.791 191.378 102.304 191.611 102.743C191.845 103.172 192.157 103.503 192.549 103.737C192.941 103.961 193.375 104.073 193.851 104.073C194.327 104.073 194.761 103.961 195.153 103.737C195.555 103.503 195.872 103.172 196.105 102.743C196.339 102.304 196.455 101.795 196.455 101.217Z" fill="#D0D1D2"/>
    <path d="M113 117.295V118.877H108.926V121.383H112.048V122.937H108.926V127.067H106.966V117.295H113ZM117.834 127.193C117.087 127.193 116.415 127.029 115.818 126.703C115.22 126.367 114.749 125.895 114.404 125.289C114.068 124.682 113.9 123.982 113.9 123.189C113.9 122.395 114.072 121.695 114.418 121.089C114.772 120.482 115.253 120.015 115.86 119.689C116.466 119.353 117.143 119.185 117.89 119.185C118.636 119.185 119.313 119.353 119.92 119.689C120.526 120.015 121.002 120.482 121.348 121.089C121.702 121.695 121.88 122.395 121.88 123.189C121.88 123.982 121.698 124.682 121.334 125.289C120.979 125.895 120.494 126.367 119.878 126.703C119.271 127.029 118.59 127.193 117.834 127.193ZM117.834 125.485C118.188 125.485 118.52 125.401 118.828 125.233C119.145 125.055 119.397 124.794 119.584 124.449C119.77 124.103 119.864 123.683 119.864 123.189C119.864 122.451 119.668 121.887 119.276 121.495C118.893 121.093 118.422 120.893 117.862 120.893C117.302 120.893 116.83 121.093 116.448 121.495C116.074 121.887 115.888 122.451 115.888 123.189C115.888 123.926 116.07 124.495 116.434 124.897C116.807 125.289 117.274 125.485 117.834 125.485ZM130.64 119.311V127.067H128.666V126.087C128.414 126.423 128.082 126.689 127.672 126.885C127.27 127.071 126.832 127.165 126.356 127.165C125.749 127.165 125.212 127.039 124.746 126.787C124.279 126.525 123.91 126.147 123.64 125.653C123.378 125.149 123.248 124.551 123.248 123.861V119.311H125.208V123.581C125.208 124.197 125.362 124.673 125.67 125.009C125.978 125.335 126.398 125.499 126.93 125.499C127.471 125.499 127.896 125.335 128.204 125.009C128.512 124.673 128.666 124.197 128.666 123.581V119.311H130.64ZM134.533 120.515C134.785 120.104 135.112 119.782 135.513 119.549C135.924 119.315 136.391 119.199 136.913 119.199V121.257H136.395C135.779 121.257 135.313 121.401 134.995 121.691C134.687 121.98 134.533 122.484 134.533 123.203V127.067H132.573V119.311H134.533V120.515ZM141.202 127.193C140.567 127.193 139.998 127.081 139.494 126.857C138.99 126.623 138.588 126.311 138.29 125.919C138 125.527 137.842 125.093 137.814 124.617H139.788C139.825 124.915 139.97 125.163 140.222 125.359C140.483 125.555 140.805 125.653 141.188 125.653C141.561 125.653 141.85 125.578 142.056 125.429C142.27 125.279 142.378 125.088 142.378 124.855C142.378 124.603 142.247 124.416 141.986 124.295C141.734 124.164 141.328 124.024 140.768 123.875C140.189 123.735 139.713 123.59 139.34 123.441C138.976 123.291 138.658 123.063 138.388 122.755C138.126 122.447 137.996 122.031 137.996 121.509C137.996 121.079 138.117 120.687 138.36 120.333C138.612 119.978 138.966 119.698 139.424 119.493C139.89 119.287 140.436 119.185 141.062 119.185C141.986 119.185 142.723 119.418 143.274 119.885C143.824 120.342 144.128 120.963 144.184 121.747H142.308C142.28 121.439 142.149 121.196 141.916 121.019C141.692 120.832 141.388 120.739 141.006 120.739C140.651 120.739 140.376 120.804 140.18 120.935C139.993 121.065 139.9 121.247 139.9 121.481C139.9 121.742 140.03 121.943 140.292 122.083C140.553 122.213 140.959 122.349 141.51 122.489C142.07 122.629 142.532 122.773 142.896 122.923C143.26 123.072 143.572 123.305 143.834 123.623C144.104 123.931 144.244 124.341 144.254 124.855C144.254 125.303 144.128 125.704 143.876 126.059C143.633 126.413 143.278 126.693 142.812 126.899C142.354 127.095 141.818 127.193 141.202 127.193ZM145.358 123.175C145.358 122.4 145.517 121.714 145.834 121.117C146.161 120.51 146.6 120.039 147.15 119.703C147.701 119.367 148.308 119.199 148.97 119.199C149.521 119.199 150.006 119.306 150.426 119.521C150.856 119.726 151.201 119.992 151.462 120.319V119.311H153.436V130.763H151.462V126.003C151.201 126.339 150.851 126.619 150.412 126.843C149.974 127.067 149.479 127.179 148.928 127.179C148.275 127.179 147.673 127.011 147.122 126.675C146.581 126.329 146.152 125.853 145.834 125.247C145.517 124.64 145.358 123.949 145.358 123.175ZM151.462 123.189C151.462 122.713 151.364 122.302 151.168 121.957C150.972 121.611 150.716 121.35 150.398 121.173C150.09 120.995 149.759 120.907 149.404 120.907C149.059 120.907 148.728 120.995 148.41 121.173C148.102 121.35 147.85 121.611 147.654 121.957C147.458 122.293 147.36 122.699 147.36 123.175C147.36 123.651 147.458 124.066 147.654 124.421C147.85 124.766 148.102 125.027 148.41 125.205C148.728 125.382 149.059 125.471 149.404 125.471C149.759 125.471 150.09 125.382 150.398 125.205C150.716 125.027 150.972 124.766 151.168 124.421C151.364 124.075 151.462 123.665 151.462 123.189ZM162.673 119.311V127.067H160.699V126.087C160.447 126.423 160.115 126.689 159.705 126.885C159.303 127.071 158.865 127.165 158.389 127.165C157.782 127.165 157.245 127.039 156.779 126.787C156.312 126.525 155.943 126.147 155.673 125.653C155.411 125.149 155.281 124.551 155.281 123.861V119.311H157.241V123.581C157.241 124.197 157.395 124.673 157.703 125.009C158.011 125.335 158.431 125.499 158.963 125.499C159.504 125.499 159.929 125.335 160.237 125.009C160.545 124.673 160.699 124.197 160.699 123.581V119.311H162.673ZM164.103 123.161C164.103 122.377 164.257 121.681 164.565 121.075C164.882 120.468 165.307 120.001 165.839 119.675C166.38 119.348 166.982 119.185 167.645 119.185C168.223 119.185 168.727 119.301 169.157 119.535C169.595 119.768 169.945 120.062 170.207 120.417V119.311H172.181V127.067H170.207V125.933C169.955 126.297 169.605 126.6 169.157 126.843C168.718 127.076 168.209 127.193 167.631 127.193C166.977 127.193 166.38 127.025 165.839 126.689C165.307 126.353 164.882 125.881 164.565 125.275C164.257 124.659 164.103 123.954 164.103 123.161ZM170.207 123.189C170.207 122.713 170.113 122.307 169.927 121.971C169.74 121.625 169.488 121.364 169.171 121.187C168.853 121 168.513 120.907 168.149 120.907C167.785 120.907 167.449 120.995 167.141 121.173C166.833 121.35 166.581 121.611 166.385 121.957C166.198 122.293 166.105 122.694 166.105 123.161C166.105 123.627 166.198 124.038 166.385 124.393C166.581 124.738 166.833 125.004 167.141 125.191C167.458 125.377 167.794 125.471 168.149 125.471C168.513 125.471 168.853 125.382 169.171 125.205C169.488 125.018 169.74 124.757 169.927 124.421C170.113 124.075 170.207 123.665 170.207 123.189ZM176.055 120.515C176.307 120.104 176.634 119.782 177.035 119.549C177.446 119.315 177.912 119.199 178.435 119.199V121.257H177.917C177.301 121.257 176.834 121.401 176.517 121.691C176.209 121.98 176.055 122.484 176.055 123.203V127.067H174.095V119.311H176.055V120.515ZM186.965 123.021C186.965 123.301 186.946 123.553 186.909 123.777H181.239C181.286 124.337 181.482 124.775 181.827 125.093C182.172 125.41 182.597 125.569 183.101 125.569C183.829 125.569 184.347 125.256 184.655 124.631H186.769C186.545 125.377 186.116 125.993 185.481 126.479C184.846 126.955 184.067 127.193 183.143 127.193C182.396 127.193 181.724 127.029 181.127 126.703C180.539 126.367 180.077 125.895 179.741 125.289C179.414 124.682 179.251 123.982 179.251 123.189C179.251 122.386 179.414 121.681 179.741 121.075C180.068 120.468 180.525 120.001 181.113 119.675C181.701 119.348 182.378 119.185 183.143 119.185C183.88 119.185 184.538 119.343 185.117 119.661C185.705 119.978 186.158 120.431 186.475 121.019C186.802 121.597 186.965 122.265 186.965 123.021ZM184.935 122.461C184.926 121.957 184.744 121.555 184.389 121.257C184.034 120.949 183.6 120.795 183.087 120.795C182.602 120.795 182.191 120.944 181.855 121.243C181.528 121.532 181.328 121.938 181.253 122.461H184.935Z" fill="#11263C"/>
    </g>
    </g>
    <line x1="106.007" y1="144.567" x2="266.003" y2="145.633" stroke="#ECE9F1"/>
    <g clip-path="url(#clip4_634_469)">
    <rect x="26" y="156.133" width="48" height="48" rx="20" fill="#2BDE73"/>
    <path d="M50 204.133C63.2548 204.133 74 193.388 74 180.133C74 166.878 63.2548 156.133 50 156.133C36.7452 156.133 26 166.878 26 180.133C26 193.388 36.7452 204.133 50 204.133Z" fill="#2BDE73"/>
    <path d="M47.3978 176.312L51.7992 169.935C52.6314 168.734 53.7055 168.133 55.0226 168.133C56.097 168.133 57.0265 168.514 57.8126 169.277C58.5979 170.039 58.9906 170.952 58.9906 172.015C58.9906 172.8 58.7831 173.494 58.367 174.094L54.3985 179.865L59.2507 186.017C59.736 186.629 59.9785 187.345 59.9785 188.165C59.9785 189.252 59.5976 190.184 58.8349 190.964C58.0725 191.744 57.1477 192.133 56.0623 192.133C54.8722 192.133 53.9656 191.747 53.3415 190.972L47.3978 183.556V187.646C47.3978 188.813 47.1958 189.719 46.7913 190.366C46.0519 191.544 44.9776 192.133 43.5684 192.133C42.2859 192.133 41.292 191.7 40.5877 190.834C39.9291 190.037 39.6001 188.979 39.6001 187.663V172.5C39.6001 171.252 39.9346 170.224 40.6051 169.416C41.3096 168.561 42.2799 168.133 43.516 168.133C44.6946 168.133 45.6764 168.561 46.462 169.416C46.9009 169.889 47.1781 170.369 47.2936 170.854C47.363 171.154 47.3978 171.714 47.3978 172.535V176.312Z" fill="white"/>
    <g clip-path="url(#clip5_634_469)">
    <path d="M110.172 174.231C109.528 174.231 108.949 174.119 108.436 173.895C107.932 173.662 107.535 173.345 107.246 172.943C106.957 172.533 106.807 172.061 106.798 171.529H108.156C108.203 171.987 108.389 172.374 108.716 172.691C109.052 172.999 109.537 173.153 110.172 173.153C110.779 173.153 111.255 173.004 111.6 172.705C111.955 172.397 112.132 172.005 112.132 171.529C112.132 171.156 112.029 170.853 111.824 170.619C111.619 170.386 111.362 170.209 111.054 170.087C110.746 169.966 110.331 169.835 109.808 169.695C109.164 169.527 108.646 169.359 108.254 169.191C107.871 169.023 107.54 168.762 107.26 168.407C106.989 168.043 106.854 167.558 106.854 166.951C106.854 166.419 106.989 165.948 107.26 165.537C107.531 165.127 107.909 164.809 108.394 164.585C108.889 164.361 109.453 164.249 110.088 164.249C111.003 164.249 111.749 164.478 112.328 164.935C112.916 165.393 113.247 165.999 113.322 166.755H111.922C111.875 166.382 111.679 166.055 111.334 165.775C110.989 165.486 110.531 165.341 109.962 165.341C109.43 165.341 108.996 165.481 108.66 165.761C108.324 166.032 108.156 166.415 108.156 166.909C108.156 167.264 108.254 167.553 108.45 167.777C108.655 168.001 108.903 168.174 109.192 168.295C109.491 168.407 109.906 168.538 110.438 168.687C111.082 168.865 111.6 169.042 111.992 169.219C112.384 169.387 112.72 169.653 113 170.017C113.28 170.372 113.42 170.857 113.42 171.473C113.42 171.949 113.294 172.397 113.042 172.817C112.79 173.237 112.417 173.578 111.922 173.839C111.427 174.101 110.844 174.231 110.172 174.231ZM116.849 167.511V172.033C116.849 172.407 116.928 172.673 117.087 172.831C117.245 172.981 117.521 173.055 117.913 173.055H118.851V174.133H117.703C116.993 174.133 116.461 173.97 116.107 173.643C115.752 173.317 115.575 172.78 115.575 172.033V167.511H114.581V166.461H115.575V164.529H116.849V166.461H118.851V167.511H116.849ZM123.74 174.259C123.022 174.259 122.368 174.096 121.78 173.769C121.202 173.443 120.744 172.981 120.408 172.383C120.082 171.777 119.918 171.077 119.918 170.283C119.918 169.499 120.086 168.809 120.422 168.211C120.768 167.605 121.234 167.143 121.822 166.825C122.41 166.499 123.068 166.335 123.796 166.335C124.524 166.335 125.182 166.499 125.77 166.825C126.358 167.143 126.82 167.6 127.156 168.197C127.502 168.795 127.674 169.49 127.674 170.283C127.674 171.077 127.497 171.777 127.142 172.383C126.797 172.981 126.326 173.443 125.728 173.769C125.131 174.096 124.468 174.259 123.74 174.259ZM123.74 173.139C124.198 173.139 124.627 173.032 125.028 172.817C125.43 172.603 125.752 172.281 125.994 171.851C126.246 171.422 126.372 170.899 126.372 170.283C126.372 169.667 126.251 169.145 126.008 168.715C125.766 168.286 125.448 167.969 125.056 167.763C124.664 167.549 124.24 167.441 123.782 167.441C123.316 167.441 122.886 167.549 122.494 167.763C122.112 167.969 121.804 168.286 121.57 168.715C121.337 169.145 121.22 169.667 121.22 170.283C121.22 170.909 121.332 171.436 121.556 171.865C121.79 172.295 122.098 172.617 122.48 172.831C122.863 173.037 123.283 173.139 123.74 173.139ZM128.873 170.283C128.873 169.49 129.032 168.799 129.349 168.211C129.667 167.614 130.105 167.152 130.665 166.825C131.235 166.499 131.883 166.335 132.611 166.335C133.554 166.335 134.329 166.564 134.935 167.021C135.551 167.479 135.957 168.113 136.153 168.925H134.781C134.651 168.459 134.394 168.09 134.011 167.819C133.638 167.549 133.171 167.413 132.611 167.413C131.883 167.413 131.295 167.665 130.847 168.169C130.399 168.664 130.175 169.369 130.175 170.283C130.175 171.207 130.399 171.921 130.847 172.425C131.295 172.929 131.883 173.181 132.611 173.181C133.171 173.181 133.638 173.051 134.011 172.789C134.385 172.528 134.641 172.155 134.781 171.669H136.153C135.948 172.453 135.537 173.083 134.921 173.559C134.305 174.026 133.535 174.259 132.611 174.259C131.883 174.259 131.235 174.096 130.665 173.769C130.105 173.443 129.667 172.981 129.349 172.383C129.032 171.786 128.873 171.086 128.873 170.283ZM142.137 174.133L139.127 170.745V174.133H137.853V163.773H139.127V169.863L142.081 166.461H143.859L140.247 170.283L143.873 174.133H142.137ZM150.345 167.511V172.033C150.345 172.407 150.424 172.673 150.583 172.831C150.742 172.981 151.017 173.055 151.409 173.055H152.347V174.133H151.199C150.49 174.133 149.958 173.97 149.603 173.643C149.248 173.317 149.071 172.78 149.071 172.033V167.511H148.077V166.461H149.071V164.529H150.345V166.461H152.347V167.511H150.345ZM155.165 167.707C155.389 167.269 155.706 166.928 156.117 166.685C156.537 166.443 157.045 166.321 157.643 166.321V167.637H157.307C155.879 167.637 155.165 168.412 155.165 169.961V174.133H153.891V166.461H155.165V167.707ZM158.637 170.269C158.637 169.485 158.796 168.799 159.113 168.211C159.43 167.614 159.864 167.152 160.415 166.825C160.975 166.499 161.596 166.335 162.277 166.335C162.949 166.335 163.532 166.48 164.027 166.769C164.522 167.059 164.89 167.423 165.133 167.861V166.461H166.421V174.133H165.133V172.705C164.881 173.153 164.503 173.527 163.999 173.825C163.504 174.115 162.926 174.259 162.263 174.259C161.582 174.259 160.966 174.091 160.415 173.755C159.864 173.419 159.43 172.948 159.113 172.341C158.796 171.735 158.637 171.044 158.637 170.269ZM165.133 170.283C165.133 169.705 165.016 169.201 164.783 168.771C164.55 168.342 164.232 168.015 163.831 167.791C163.439 167.558 163.005 167.441 162.529 167.441C162.053 167.441 161.619 167.553 161.227 167.777C160.835 168.001 160.522 168.328 160.289 168.757C160.056 169.187 159.939 169.691 159.939 170.269C159.939 170.857 160.056 171.371 160.289 171.809C160.522 172.239 160.835 172.57 161.227 172.803C161.619 173.027 162.053 173.139 162.529 173.139C163.005 173.139 163.439 173.027 163.831 172.803C164.232 172.57 164.55 172.239 164.783 171.809C165.016 171.371 165.133 170.862 165.133 170.283ZM168.098 170.269C168.098 169.485 168.257 168.799 168.574 168.211C168.891 167.614 169.325 167.152 169.876 166.825C170.436 166.499 171.061 166.335 171.752 166.335C172.349 166.335 172.905 166.475 173.418 166.755C173.931 167.026 174.323 167.385 174.594 167.833V163.773H175.882V174.133H174.594V172.691C174.342 173.149 173.969 173.527 173.474 173.825C172.979 174.115 172.401 174.259 171.738 174.259C171.057 174.259 170.436 174.091 169.876 173.755C169.325 173.419 168.891 172.948 168.574 172.341C168.257 171.735 168.098 171.044 168.098 170.269ZM174.594 170.283C174.594 169.705 174.477 169.201 174.244 168.771C174.011 168.342 173.693 168.015 173.292 167.791C172.9 167.558 172.466 167.441 171.99 167.441C171.514 167.441 171.08 167.553 170.688 167.777C170.296 168.001 169.983 168.328 169.75 168.757C169.517 169.187 169.4 169.691 169.4 170.269C169.4 170.857 169.517 171.371 169.75 171.809C169.983 172.239 170.296 172.57 170.688 172.803C171.08 173.027 171.514 173.139 171.99 173.139C172.466 173.139 172.9 173.027 173.292 172.803C173.693 172.57 174.011 172.239 174.244 171.809C174.477 171.371 174.594 170.862 174.594 170.283ZM178.693 165.215C178.45 165.215 178.245 165.131 178.077 164.963C177.909 164.795 177.825 164.59 177.825 164.347C177.825 164.105 177.909 163.899 178.077 163.731C178.245 163.563 178.45 163.479 178.693 163.479C178.926 163.479 179.122 163.563 179.281 163.731C179.449 163.899 179.533 164.105 179.533 164.347C179.533 164.59 179.449 164.795 179.281 164.963C179.122 165.131 178.926 165.215 178.693 165.215ZM179.309 166.461V174.133H178.035V166.461H179.309ZM185.218 166.321C186.152 166.321 186.908 166.606 187.486 167.175C188.065 167.735 188.354 168.547 188.354 169.611V174.133H187.094V169.793C187.094 169.028 186.903 168.445 186.52 168.043C186.138 167.633 185.615 167.427 184.952 167.427C184.28 167.427 183.744 167.637 183.342 168.057C182.95 168.477 182.754 169.089 182.754 169.891V174.133H181.48V166.461H182.754V167.553C183.006 167.161 183.347 166.858 183.776 166.643C184.215 166.429 184.696 166.321 185.218 166.321ZM193.599 166.335C194.262 166.335 194.841 166.48 195.335 166.769C195.839 167.059 196.213 167.423 196.455 167.861V166.461H197.743V174.301C197.743 175.001 197.594 175.622 197.295 176.163C196.997 176.714 196.567 177.143 196.007 177.451C195.457 177.759 194.813 177.913 194.075 177.913C193.067 177.913 192.227 177.675 191.555 177.199C190.883 176.723 190.487 176.075 190.365 175.253H191.625C191.765 175.72 192.055 176.093 192.493 176.373C192.932 176.663 193.459 176.807 194.075 176.807C194.775 176.807 195.345 176.588 195.783 176.149C196.231 175.711 196.455 175.095 196.455 174.301V172.691C196.203 173.139 195.83 173.513 195.335 173.811C194.841 174.11 194.262 174.259 193.599 174.259C192.918 174.259 192.297 174.091 191.737 173.755C191.187 173.419 190.753 172.948 190.435 172.341C190.118 171.735 189.959 171.044 189.959 170.269C189.959 169.485 190.118 168.799 190.435 168.211C190.753 167.614 191.187 167.152 191.737 166.825C192.297 166.499 192.918 166.335 193.599 166.335ZM196.455 170.283C196.455 169.705 196.339 169.201 196.105 168.771C195.872 168.342 195.555 168.015 195.153 167.791C194.761 167.558 194.327 167.441 193.851 167.441C193.375 167.441 192.941 167.553 192.549 167.777C192.157 168.001 191.845 168.328 191.611 168.757C191.378 169.187 191.261 169.691 191.261 170.269C191.261 170.857 191.378 171.371 191.611 171.809C191.845 172.239 192.157 172.57 192.549 172.803C192.941 173.027 193.375 173.139 193.851 173.139C194.327 173.139 194.761 173.027 195.153 172.803C195.555 172.57 195.872 172.239 196.105 171.809C196.339 171.371 196.455 170.862 196.455 170.283Z" fill="#D0D1D2"/>
    <path d="M112.482 196.133L108.926 191.779V196.133H106.966V186.361H108.926V190.743L112.482 186.361H114.848L110.816 191.205L114.96 196.133H112.482ZM117.243 187.453C116.898 187.453 116.609 187.346 116.375 187.131C116.151 186.907 116.039 186.632 116.039 186.305C116.039 185.979 116.151 185.708 116.375 185.493C116.609 185.269 116.898 185.157 117.243 185.157C117.589 185.157 117.873 185.269 118.097 185.493C118.331 185.708 118.447 185.979 118.447 186.305C118.447 186.632 118.331 186.907 118.097 187.131C117.873 187.346 117.589 187.453 117.243 187.453ZM118.209 188.377V196.133H116.249V188.377H118.209ZM119.642 192.255C119.642 191.453 119.805 190.753 120.132 190.155C120.458 189.549 120.911 189.082 121.49 188.755C122.068 188.419 122.731 188.251 123.478 188.251C124.439 188.251 125.232 188.494 125.858 188.979C126.492 189.455 126.917 190.127 127.132 190.995H125.018C124.906 190.659 124.714 190.398 124.444 190.211C124.182 190.015 123.856 189.917 123.464 189.917C122.904 189.917 122.46 190.123 122.134 190.533C121.807 190.935 121.644 191.509 121.644 192.255C121.644 192.993 121.807 193.567 122.134 193.977C122.46 194.379 122.904 194.579 123.464 194.579C124.257 194.579 124.775 194.225 125.018 193.515H127.132C126.917 194.355 126.492 195.023 125.858 195.517C125.223 196.012 124.43 196.259 123.478 196.259C122.731 196.259 122.068 196.096 121.49 195.769C120.911 195.433 120.458 194.967 120.132 194.369C119.805 193.763 119.642 193.058 119.642 192.255ZM133.16 196.133L130.528 192.829V196.133H128.568V185.773H130.528V191.667L133.132 188.377H135.68L132.264 192.269L135.708 196.133H133.16ZM139.711 196.259C139.077 196.259 138.507 196.147 138.003 195.923C137.499 195.69 137.098 195.377 136.799 194.985C136.51 194.593 136.351 194.159 136.323 193.683H138.297C138.335 193.982 138.479 194.229 138.731 194.425C138.993 194.621 139.315 194.719 139.697 194.719C140.071 194.719 140.36 194.645 140.565 194.495C140.78 194.346 140.887 194.155 140.887 193.921C140.887 193.669 140.757 193.483 140.495 193.361C140.243 193.231 139.837 193.091 139.277 192.941C138.699 192.801 138.223 192.657 137.849 192.507C137.485 192.358 137.168 192.129 136.897 191.821C136.636 191.513 136.505 191.098 136.505 190.575C136.505 190.146 136.627 189.754 136.869 189.399C137.121 189.045 137.476 188.765 137.933 188.559C138.4 188.354 138.946 188.251 139.571 188.251C140.495 188.251 141.233 188.485 141.783 188.951C142.334 189.409 142.637 190.029 142.693 190.813H140.817C140.789 190.505 140.659 190.263 140.425 190.085C140.201 189.899 139.898 189.805 139.515 189.805C139.161 189.805 138.885 189.871 138.689 190.001C138.503 190.132 138.409 190.314 138.409 190.547C138.409 190.809 138.54 191.009 138.801 191.149C139.063 191.28 139.469 191.415 140.019 191.555C140.579 191.695 141.041 191.84 141.405 191.989C141.769 192.139 142.082 192.372 142.343 192.689C142.614 192.997 142.754 193.408 142.763 193.921C142.763 194.369 142.637 194.771 142.385 195.125C142.143 195.48 141.788 195.76 141.321 195.965C140.864 196.161 140.327 196.259 139.711 196.259ZM146.654 189.987V193.739C146.654 194.001 146.715 194.192 146.836 194.313C146.967 194.425 147.182 194.481 147.48 194.481H148.39V196.133H147.158C145.506 196.133 144.68 195.331 144.68 193.725V189.987H143.756V188.377H144.68V186.459H146.654V188.377H148.39V189.987H146.654ZM149.296 192.227C149.296 191.443 149.45 190.748 149.758 190.141C150.075 189.535 150.5 189.068 151.032 188.741C151.573 188.415 152.175 188.251 152.838 188.251C153.417 188.251 153.921 188.368 154.35 188.601C154.789 188.835 155.139 189.129 155.4 189.483V188.377H157.374V196.133H155.4V194.999C155.148 195.363 154.798 195.667 154.35 195.909C153.911 196.143 153.403 196.259 152.824 196.259C152.171 196.259 151.573 196.091 151.032 195.755C150.5 195.419 150.075 194.948 149.758 194.341C149.45 193.725 149.296 193.021 149.296 192.227ZM155.4 192.255C155.4 191.779 155.307 191.373 155.12 191.037C154.933 190.692 154.681 190.431 154.364 190.253C154.047 190.067 153.706 189.973 153.342 189.973C152.978 189.973 152.642 190.062 152.334 190.239C152.026 190.417 151.774 190.678 151.578 191.023C151.391 191.359 151.298 191.761 151.298 192.227C151.298 192.694 151.391 193.105 151.578 193.459C151.774 193.805 152.026 194.071 152.334 194.257C152.651 194.444 152.987 194.537 153.342 194.537C153.706 194.537 154.047 194.449 154.364 194.271C154.681 194.085 154.933 193.823 155.12 193.487C155.307 193.142 155.4 192.731 155.4 192.255ZM161.248 189.581C161.5 189.171 161.827 188.849 162.228 188.615C162.639 188.382 163.106 188.265 163.628 188.265V190.323H163.11C162.494 190.323 162.028 190.468 161.71 190.757C161.402 191.047 161.248 191.551 161.248 192.269V196.133H159.288V188.377H161.248V189.581ZM167.23 189.987V193.739C167.23 194.001 167.291 194.192 167.412 194.313C167.543 194.425 167.758 194.481 168.056 194.481H168.966V196.133H167.734C166.082 196.133 165.256 195.331 165.256 193.725V189.987H164.332V188.377H165.256V186.459H167.23V188.377H168.966V189.987H167.23ZM177.586 192.087C177.586 192.367 177.567 192.619 177.53 192.843H171.86C171.907 193.403 172.103 193.842 172.448 194.159C172.793 194.477 173.218 194.635 173.722 194.635C174.45 194.635 174.968 194.323 175.276 193.697H177.39C177.166 194.444 176.737 195.06 176.102 195.545C175.467 196.021 174.688 196.259 173.764 196.259C173.017 196.259 172.345 196.096 171.748 195.769C171.16 195.433 170.698 194.962 170.362 194.355C170.035 193.749 169.872 193.049 169.872 192.255C169.872 191.453 170.035 190.748 170.362 190.141C170.689 189.535 171.146 189.068 171.734 188.741C172.322 188.415 172.999 188.251 173.764 188.251C174.501 188.251 175.159 188.41 175.738 188.727C176.326 189.045 176.779 189.497 177.096 190.085C177.423 190.664 177.586 191.331 177.586 192.087ZM175.556 191.527C175.547 191.023 175.365 190.622 175.01 190.323C174.655 190.015 174.221 189.861 173.708 189.861C173.223 189.861 172.812 190.011 172.476 190.309C172.149 190.599 171.949 191.005 171.874 191.527H175.556ZM180.977 189.581C181.229 189.171 181.555 188.849 181.957 188.615C182.367 188.382 182.834 188.265 183.357 188.265V190.323H182.839C182.223 190.323 181.756 190.468 181.439 190.757C181.131 191.047 180.977 191.551 180.977 192.269V196.133H179.017V188.377H180.977V189.581Z" fill="#11263C"/>
    </g>
    </g>
    <line x1="106.007" y1="213.633" x2="266.003" y2="214.7" stroke="#ECE9F1"/>
    <g clip-path="url(#clip6_634_469)">
    <rect x="26" y="225.2" width="48" height="48.0001" rx="20" fill="#FFE812"/>
    <g clip-path="url(#clip7_634_469)">
    <path d="M26 249.2C26 235.945 36.7452 225.2 50 225.2C63.2548 225.2 74 235.945 74 249.2C74 262.455 63.2548 273.2 50 273.2C36.7452 273.2 26 262.455 26 249.2Z" fill="#FFE812"/>
    <path d="M50 236.2C41.1634 236.2 34 241.848 34 248.815C34 253.32 36.9948 257.272 41.4997 259.504C41.2546 260.349 39.9248 264.942 39.8718 265.302C39.8718 265.302 39.84 265.573 40.0155 265.677C40.1911 265.78 40.3975 265.7 40.3975 265.7C40.9009 265.63 46.2349 261.883 47.1582 261.232C48.0805 261.363 49.0302 261.431 50 261.431C58.8366 261.431 66 255.783 66 248.815C66 241.848 58.8366 236.2 50 236.2Z" fill="#381F1F"/>
    <path d="M41.1538 253.219C40.6447 253.219 40.2307 252.824 40.2307 252.338V246.854H38.7904C38.2908 246.854 37.8845 246.448 37.8845 245.95C37.8845 245.452 38.291 245.046 38.7904 245.046H43.5171C44.0167 245.046 44.423 245.452 44.423 245.95C44.423 246.448 44.0165 246.854 43.5171 246.854H42.0768V252.338C42.0768 252.824 41.6628 253.219 41.1538 253.219ZM49.2479 253.207C48.863 253.207 48.5685 253.051 48.4798 252.799L48.0227 251.603L45.2079 251.603L44.7505 252.8C44.6621 253.051 44.3678 253.207 43.9828 253.207C43.7804 253.207 43.5802 253.164 43.3961 253.08C43.1416 252.962 42.897 252.64 43.1773 251.769L45.3853 245.957C45.5408 245.515 46.0133 245.06 46.6145 245.046C47.2174 245.06 47.6899 245.515 47.8458 245.958L50.0528 251.767C50.3337 252.64 50.0891 252.963 49.8347 253.08C49.6505 253.164 49.4504 253.207 49.2479 253.207C49.2479 253.207 49.2478 253.207 49.2479 253.207ZM47.5373 249.968L46.6153 247.349L45.6933 249.968H47.5373ZM51.5384 253.085C51.0505 253.085 50.6538 252.705 50.6538 252.238V245.969C50.6538 245.46 51.0765 245.046 51.5961 245.046C52.1156 245.046 52.5384 245.46 52.5384 245.969V251.392H54.4999C54.9877 251.392 55.3845 251.772 55.3845 252.238C55.3845 252.705 54.9877 253.085 54.4999 253.085H51.5384ZM56.6667 253.207C56.1576 253.207 55.7436 252.793 55.7436 252.284V245.969C55.7436 245.46 56.1576 245.046 56.6667 245.046C57.1757 245.046 57.5897 245.46 57.5897 245.969V247.953L60.1651 245.378C60.2976 245.245 60.4796 245.172 60.6771 245.172C60.9076 245.172 61.139 245.272 61.3124 245.445C61.4741 245.607 61.5705 245.814 61.5837 246.03C61.5971 246.248 61.5247 246.447 61.3801 246.592L59.2765 248.695L61.5487 251.706C61.622 251.802 61.6755 251.912 61.7059 252.03C61.7363 252.147 61.7431 252.269 61.7259 252.389C61.7094 252.51 61.6693 252.625 61.6078 252.73C61.5464 252.834 61.4648 252.926 61.3678 252.998C61.2081 253.12 61.013 253.185 60.8125 253.185C60.6695 253.185 60.5283 253.152 60.4003 253.089C60.2722 253.025 60.1609 252.932 60.0751 252.818L57.9104 249.949L57.5901 250.27V252.284C57.5898 252.528 57.4924 252.763 57.3193 252.936C57.1462 253.109 56.9115 253.207 56.6667 253.207Z" fill="#FFE812"/>
    </g>
    <g clip-path="url(#clip8_634_469)">
    <path d="M110.172 243.298C109.528 243.298 108.949 243.186 108.436 242.962C107.932 242.729 107.535 242.411 107.246 242.01C106.957 241.599 106.807 241.128 106.798 240.596H108.156C108.203 241.053 108.389 241.441 108.716 241.758C109.052 242.066 109.537 242.22 110.172 242.22C110.779 242.22 111.255 242.071 111.6 241.772C111.955 241.464 112.132 241.072 112.132 240.596C112.132 240.223 112.029 239.919 111.824 239.686C111.619 239.453 111.362 239.275 111.054 239.154C110.746 239.033 110.331 238.902 109.808 238.762C109.164 238.594 108.646 238.426 108.254 238.258C107.871 238.09 107.54 237.829 107.26 237.474C106.989 237.11 106.854 236.625 106.854 236.018C106.854 235.486 106.989 235.015 107.26 234.604C107.531 234.193 107.909 233.876 108.394 233.652C108.889 233.428 109.453 233.316 110.088 233.316C111.003 233.316 111.749 233.545 112.328 234.002C112.916 234.459 113.247 235.066 113.322 235.822H111.922C111.875 235.449 111.679 235.122 111.334 234.842C110.989 234.553 110.531 234.408 109.962 234.408C109.43 234.408 108.996 234.548 108.66 234.828C108.324 235.099 108.156 235.481 108.156 235.976C108.156 236.331 108.254 236.62 108.45 236.844C108.655 237.068 108.903 237.241 109.192 237.362C109.491 237.474 109.906 237.605 110.438 237.754C111.082 237.931 111.6 238.109 111.992 238.286C112.384 238.454 112.72 238.72 113 239.084C113.28 239.439 113.42 239.924 113.42 240.54C113.42 241.016 113.294 241.464 113.042 241.884C112.79 242.304 112.417 242.645 111.922 242.906C111.427 243.167 110.844 243.298 110.172 243.298ZM116.849 236.578V241.1C116.849 241.473 116.928 241.739 117.087 241.898C117.245 242.047 117.521 242.122 117.913 242.122H118.851V243.2H117.703C116.993 243.2 116.461 243.037 116.107 242.71C115.752 242.383 115.575 241.847 115.575 241.1V236.578H114.581V235.528H115.575V233.596H116.849V235.528H118.851V236.578H116.849ZM123.74 243.326C123.022 243.326 122.368 243.163 121.78 242.836C121.202 242.509 120.744 242.047 120.408 241.45C120.082 240.843 119.918 240.143 119.918 239.35C119.918 238.566 120.086 237.875 120.422 237.278C120.768 236.671 121.234 236.209 121.822 235.892C122.41 235.565 123.068 235.402 123.796 235.402C124.524 235.402 125.182 235.565 125.77 235.892C126.358 236.209 126.82 236.667 127.156 237.264C127.502 237.861 127.674 238.557 127.674 239.35C127.674 240.143 127.497 240.843 127.142 241.45C126.797 242.047 126.326 242.509 125.728 242.836C125.131 243.163 124.468 243.326 123.74 243.326ZM123.74 242.206C124.198 242.206 124.627 242.099 125.028 241.884C125.43 241.669 125.752 241.347 125.994 240.918C126.246 240.489 126.372 239.966 126.372 239.35C126.372 238.734 126.251 238.211 126.008 237.782C125.766 237.353 125.448 237.035 125.056 236.83C124.664 236.615 124.24 236.508 123.782 236.508C123.316 236.508 122.886 236.615 122.494 236.83C122.112 237.035 121.804 237.353 121.57 237.782C121.337 238.211 121.22 238.734 121.22 239.35C121.22 239.975 121.332 240.503 121.556 240.932C121.79 241.361 122.098 241.683 122.48 241.898C122.863 242.103 123.283 242.206 123.74 242.206ZM128.873 239.35C128.873 238.557 129.032 237.866 129.349 237.278C129.667 236.681 130.105 236.219 130.665 235.892C131.235 235.565 131.883 235.402 132.611 235.402C133.554 235.402 134.329 235.631 134.935 236.088C135.551 236.545 135.957 237.18 136.153 237.992H134.781C134.651 237.525 134.394 237.157 134.011 236.886C133.638 236.615 133.171 236.48 132.611 236.48C131.883 236.48 131.295 236.732 130.847 237.236C130.399 237.731 130.175 238.435 130.175 239.35C130.175 240.274 130.399 240.988 130.847 241.492C131.295 241.996 131.883 242.248 132.611 242.248C133.171 242.248 133.638 242.117 134.011 241.856C134.385 241.595 134.641 241.221 134.781 240.736H136.153C135.948 241.52 135.537 242.15 134.921 242.626C134.305 243.093 133.535 243.326 132.611 243.326C131.883 243.326 131.235 243.163 130.665 242.836C130.105 242.509 129.667 242.047 129.349 241.45C129.032 240.853 128.873 240.153 128.873 239.35ZM142.137 243.2L139.127 239.812V243.2H137.853V232.84H139.127V238.93L142.081 235.528H143.859L140.247 239.35L143.873 243.2H142.137ZM150.345 236.578V241.1C150.345 241.473 150.424 241.739 150.583 241.898C150.742 242.047 151.017 242.122 151.409 242.122H152.347V243.2H151.199C150.49 243.2 149.958 243.037 149.603 242.71C149.248 242.383 149.071 241.847 149.071 241.1V236.578H148.077V235.528H149.071V233.596H150.345V235.528H152.347V236.578H150.345ZM155.165 236.774C155.389 236.335 155.706 235.995 156.117 235.752C156.537 235.509 157.045 235.388 157.643 235.388V236.704H157.307C155.879 236.704 155.165 237.479 155.165 239.028V243.2H153.891V235.528H155.165V236.774ZM158.637 239.336C158.637 238.552 158.796 237.866 159.113 237.278C159.43 236.681 159.864 236.219 160.415 235.892C160.975 235.565 161.596 235.402 162.277 235.402C162.949 235.402 163.532 235.547 164.027 235.836C164.522 236.125 164.89 236.489 165.133 236.928V235.528H166.421V243.2H165.133V241.772C164.881 242.22 164.503 242.593 163.999 242.892C163.504 243.181 162.926 243.326 162.263 243.326C161.582 243.326 160.966 243.158 160.415 242.822C159.864 242.486 159.43 242.015 159.113 241.408C158.796 240.801 158.637 240.111 158.637 239.336ZM165.133 239.35C165.133 238.771 165.016 238.267 164.783 237.838C164.55 237.409 164.232 237.082 163.831 236.858C163.439 236.625 163.005 236.508 162.529 236.508C162.053 236.508 161.619 236.62 161.227 236.844C160.835 237.068 160.522 237.395 160.289 237.824C160.056 238.253 159.939 238.757 159.939 239.336C159.939 239.924 160.056 240.437 160.289 240.876C160.522 241.305 160.835 241.637 161.227 241.87C161.619 242.094 162.053 242.206 162.529 242.206C163.005 242.206 163.439 242.094 163.831 241.87C164.232 241.637 164.55 241.305 164.783 240.876C165.016 240.437 165.133 239.929 165.133 239.35ZM168.098 239.336C168.098 238.552 168.257 237.866 168.574 237.278C168.891 236.681 169.325 236.219 169.876 235.892C170.436 235.565 171.061 235.402 171.752 235.402C172.349 235.402 172.905 235.542 173.418 235.822C173.931 236.093 174.323 236.452 174.594 236.9V232.84H175.882V243.2H174.594V241.758C174.342 242.215 173.969 242.593 173.474 242.892C172.979 243.181 172.401 243.326 171.738 243.326C171.057 243.326 170.436 243.158 169.876 242.822C169.325 242.486 168.891 242.015 168.574 241.408C168.257 240.801 168.098 240.111 168.098 239.336ZM174.594 239.35C174.594 238.771 174.477 238.267 174.244 237.838C174.011 237.409 173.693 237.082 173.292 236.858C172.9 236.625 172.466 236.508 171.99 236.508C171.514 236.508 171.08 236.62 170.688 236.844C170.296 237.068 169.983 237.395 169.75 237.824C169.517 238.253 169.4 238.757 169.4 239.336C169.4 239.924 169.517 240.437 169.75 240.876C169.983 241.305 170.296 241.637 170.688 241.87C171.08 242.094 171.514 242.206 171.99 242.206C172.466 242.206 172.9 242.094 173.292 241.87C173.693 241.637 174.011 241.305 174.244 240.876C174.477 240.437 174.594 239.929 174.594 239.35ZM178.693 234.282C178.45 234.282 178.245 234.198 178.077 234.03C177.909 233.862 177.825 233.657 177.825 233.414C177.825 233.171 177.909 232.966 178.077 232.798C178.245 232.63 178.45 232.546 178.693 232.546C178.926 232.546 179.122 232.63 179.281 232.798C179.449 232.966 179.533 233.171 179.533 233.414C179.533 233.657 179.449 233.862 179.281 234.03C179.122 234.198 178.926 234.282 178.693 234.282ZM179.309 235.528V243.2H178.035V235.528H179.309ZM185.218 235.388C186.152 235.388 186.908 235.673 187.486 236.242C188.065 236.802 188.354 237.614 188.354 238.678V243.2H187.094V238.86C187.094 238.095 186.903 237.511 186.52 237.11C186.138 236.699 185.615 236.494 184.952 236.494C184.28 236.494 183.744 236.704 183.342 237.124C182.95 237.544 182.754 238.155 182.754 238.958V243.2H181.48V235.528H182.754V236.62C183.006 236.228 183.347 235.925 183.776 235.71C184.215 235.495 184.696 235.388 185.218 235.388ZM193.599 235.402C194.262 235.402 194.841 235.547 195.335 235.836C195.839 236.125 196.213 236.489 196.455 236.928V235.528H197.743V243.368C197.743 244.068 197.594 244.689 197.295 245.23C196.997 245.781 196.567 246.21 196.007 246.518C195.457 246.826 194.813 246.98 194.075 246.98C193.067 246.98 192.227 246.742 191.555 246.266C190.883 245.79 190.487 245.141 190.365 244.32H191.625C191.765 244.787 192.055 245.16 192.493 245.44C192.932 245.729 193.459 245.874 194.075 245.874C194.775 245.874 195.345 245.655 195.783 245.216C196.231 244.777 196.455 244.161 196.455 243.368V241.758C196.203 242.206 195.83 242.579 195.335 242.878C194.841 243.177 194.262 243.326 193.599 243.326C192.918 243.326 192.297 243.158 191.737 242.822C191.187 242.486 190.753 242.015 190.435 241.408C190.118 240.801 189.959 240.111 189.959 239.336C189.959 238.552 190.118 237.866 190.435 237.278C190.753 236.681 191.187 236.219 191.737 235.892C192.297 235.565 192.918 235.402 193.599 235.402ZM196.455 239.35C196.455 238.771 196.339 238.267 196.105 237.838C195.872 237.409 195.555 237.082 195.153 236.858C194.761 236.625 194.327 236.508 193.851 236.508C193.375 236.508 192.941 236.62 192.549 236.844C192.157 237.068 191.845 237.395 191.611 237.824C191.378 238.253 191.261 238.757 191.261 239.336C191.261 239.924 191.378 240.437 191.611 240.876C191.845 241.305 192.157 241.637 192.549 241.87C192.941 242.094 193.375 242.206 193.851 242.206C194.327 242.206 194.761 242.094 195.153 241.87C195.555 241.637 195.872 241.305 196.105 240.876C196.339 240.437 196.455 239.929 196.455 239.35Z" fill="#D0D1D2"/>
    <path d="M113.77 258.368C113.546 257.957 113.238 257.645 112.846 257.43C112.454 257.215 111.997 257.108 111.474 257.108C110.895 257.108 110.382 257.239 109.934 257.5C109.486 257.761 109.136 258.135 108.884 258.62C108.632 259.105 108.506 259.665 108.506 260.3C108.506 260.953 108.632 261.523 108.884 262.008C109.145 262.493 109.505 262.867 109.962 263.128C110.419 263.389 110.951 263.52 111.558 263.52C112.305 263.52 112.916 263.324 113.392 262.932C113.868 262.531 114.181 261.975 114.33 261.266H110.97V259.768H116.262V261.476C116.131 262.157 115.851 262.787 115.422 263.366C114.993 263.945 114.437 264.411 113.756 264.766C113.084 265.111 112.328 265.284 111.488 265.284C110.545 265.284 109.691 265.074 108.926 264.654C108.17 264.225 107.573 263.632 107.134 262.876C106.705 262.12 106.49 261.261 106.49 260.3C106.49 259.339 106.705 258.48 107.134 257.724C107.573 256.959 108.17 256.366 108.926 255.946C109.691 255.517 110.541 255.302 111.474 255.302C112.575 255.302 113.532 255.573 114.344 256.114C115.156 256.646 115.716 257.397 116.024 258.368H113.77ZM121.156 265.326C120.409 265.326 119.737 265.163 119.14 264.836C118.543 264.5 118.071 264.029 117.726 263.422C117.39 262.815 117.222 262.115 117.222 261.322C117.222 260.529 117.395 259.829 117.74 259.222C118.095 258.615 118.575 258.149 119.182 257.822C119.789 257.486 120.465 257.318 121.212 257.318C121.959 257.318 122.635 257.486 123.242 257.822C123.849 258.149 124.325 258.615 124.67 259.222C125.025 259.829 125.202 260.529 125.202 261.322C125.202 262.115 125.02 262.815 124.656 263.422C124.301 264.029 123.816 264.5 123.2 264.836C122.593 265.163 121.912 265.326 121.156 265.326ZM121.156 263.618C121.511 263.618 121.842 263.534 122.15 263.366C122.467 263.189 122.719 262.927 122.906 262.582C123.093 262.237 123.186 261.817 123.186 261.322C123.186 260.585 122.99 260.02 122.598 259.628C122.215 259.227 121.744 259.026 121.184 259.026C120.624 259.026 120.153 259.227 119.77 259.628C119.397 260.02 119.21 260.585 119.21 261.322C119.21 262.059 119.392 262.629 119.756 263.03C120.129 263.422 120.596 263.618 121.156 263.618ZM130.084 265.326C129.337 265.326 128.665 265.163 128.068 264.836C127.47 264.5 126.999 264.029 126.654 263.422C126.318 262.815 126.15 262.115 126.15 261.322C126.15 260.529 126.322 259.829 126.668 259.222C127.022 258.615 127.503 258.149 128.11 257.822C128.716 257.486 129.393 257.318 130.14 257.318C130.886 257.318 131.563 257.486 132.17 257.822C132.776 258.149 133.252 258.615 133.598 259.222C133.952 259.829 134.13 260.529 134.13 261.322C134.13 262.115 133.948 262.815 133.584 263.422C133.229 264.029 132.744 264.5 132.128 264.836C131.521 265.163 130.84 265.326 130.084 265.326ZM130.084 263.618C130.438 263.618 130.77 263.534 131.078 263.366C131.395 263.189 131.647 262.927 131.834 262.582C132.02 262.237 132.114 261.817 132.114 261.322C132.114 260.585 131.918 260.02 131.526 259.628C131.143 259.227 130.672 259.026 130.112 259.026C129.552 259.026 129.08 259.227 128.698 259.628C128.324 260.02 128.138 260.585 128.138 261.322C128.138 262.059 128.32 262.629 128.684 263.03C129.057 263.422 129.524 263.618 130.084 263.618ZM138.606 257.318C139.184 257.318 139.693 257.435 140.132 257.668C140.57 257.892 140.916 258.186 141.168 258.55V257.444H143.142V265.256C143.142 265.975 142.997 266.614 142.708 267.174C142.418 267.743 141.984 268.191 141.406 268.518C140.827 268.854 140.127 269.022 139.306 269.022C138.204 269.022 137.299 268.765 136.59 268.252C135.89 267.739 135.493 267.039 135.4 266.152H137.346C137.448 266.507 137.668 266.787 138.004 266.992C138.349 267.207 138.764 267.314 139.25 267.314C139.819 267.314 140.281 267.141 140.636 266.796C140.99 266.46 141.168 265.947 141.168 265.256V264.052C140.916 264.416 140.566 264.719 140.118 264.962C139.679 265.205 139.175 265.326 138.606 265.326C137.952 265.326 137.355 265.158 136.814 264.822C136.272 264.486 135.843 264.015 135.526 263.408C135.218 262.792 135.064 262.087 135.064 261.294C135.064 260.51 135.218 259.815 135.526 259.208C135.843 258.601 136.268 258.135 136.8 257.808C137.341 257.481 137.943 257.318 138.606 257.318ZM141.168 261.322C141.168 260.846 141.074 260.44 140.888 260.104C140.701 259.759 140.449 259.497 140.132 259.32C139.814 259.133 139.474 259.04 139.11 259.04C138.746 259.04 138.41 259.129 138.102 259.306C137.794 259.483 137.542 259.745 137.346 260.09C137.159 260.426 137.066 260.827 137.066 261.294C137.066 261.761 137.159 262.171 137.346 262.526C137.542 262.871 137.794 263.137 138.102 263.324C138.419 263.511 138.755 263.604 139.11 263.604C139.474 263.604 139.814 263.515 140.132 263.338C140.449 263.151 140.701 262.89 140.888 262.554C141.074 262.209 141.168 261.798 141.168 261.322ZM147.016 254.84V265.2H145.056V254.84H147.016ZM156.162 261.154C156.162 261.434 156.144 261.686 156.106 261.91H150.436C150.483 262.47 150.679 262.909 151.024 263.226C151.37 263.543 151.794 263.702 152.298 263.702C153.026 263.702 153.544 263.389 153.852 262.764H155.966C155.742 263.511 155.313 264.127 154.678 264.612C154.044 265.088 153.264 265.326 152.34 265.326C151.594 265.326 150.922 265.163 150.324 264.836C149.736 264.5 149.274 264.029 148.938 263.422C148.612 262.815 148.448 262.115 148.448 261.322C148.448 260.519 148.612 259.815 148.938 259.208C149.265 258.601 149.722 258.135 150.31 257.808C150.898 257.481 151.575 257.318 152.34 257.318C153.078 257.318 153.736 257.477 154.314 257.794C154.902 258.111 155.355 258.564 155.672 259.152C155.999 259.731 156.162 260.398 156.162 261.154ZM154.132 260.594C154.123 260.09 153.941 259.689 153.586 259.39C153.232 259.082 152.798 258.928 152.284 258.928C151.799 258.928 151.388 259.077 151.052 259.376C150.726 259.665 150.525 260.071 150.45 260.594H154.132Z" fill="#11263C"/>
    </g>
    </g>
    </g>
    </g>
    <defs>
    <filter id="filter0_dd_634_469" x="0" y="0" width="282" height="307.2" filterUnits="userSpaceOnUse" color-interpolation-filters="sRGB">
    <feFlood flood-opacity="0" result="BackgroundImageFix"/>
    <feColorMatrix in="SourceAlpha" type="matrix" values="0 0 0 0 0 0 0 0 0 0 0 0 0 0 0 0 0 0 127 0" result="hardAlpha"/>
    <feOffset dy="8"/>
    <feGaussianBlur stdDeviation="8"/>
    <feColorMatrix type="matrix" values="0 0 0 0 0.196487 0 0 0 0 0.196487 0 0 0 0 0.279476 0 0 0 0.06 0"/>
    <feBlend mode="multiply" in2="BackgroundImageFix" result="effect1_dropShadow_634_469"/>
    <feColorMatrix in="SourceAlpha" type="matrix" values="0 0 0 0 0 0 0 0 0 0 0 0 0 0 0 0 0 0 127 0" result="hardAlpha"/>
    <feOffset dy="8"/>
    <feGaussianBlur stdDeviation="4"/>
    <feColorMatrix type="matrix" values="0 0 0 0 0.196487 0 0 0 0 0.196487 0 0 0 0 0.279476 0 0 0 0.08 0"/>
    <feBlend mode="multiply" in2="effect1_dropShadow_634_469" result="effect2_dropShadow_634_469"/>
    <feBlend mode="normal" in="SourceGraphic" in2="effect2_dropShadow_634_469" result="shape"/>
    </filter>
    <clipPath id="clip0_634_469">
    <rect x="16" y="8" width="250" height="275.2" rx="20" fill="white"/>
    </clipPath>
    <clipPath id="clip1_634_469">
    <rect width="150" height="44" fill="white" transform="translate(106 20)"/>
    </clipPath>
    <clipPath id="clip2_634_469">
    <rect width="250" height="48" fill="white" transform="translate(16 87.0667)"/>
    </clipPath>
    <clipPath id="clip3_634_469">
    <rect width="150" height="44" fill="white" transform="translate(106 89.0667)"/>
    </clipPath>
    <clipPath id="clip4_634_469">
    <rect width="250" height="48" fill="white" transform="translate(16 156.133)"/>
    </clipPath>
    <clipPath id="clip5_634_469">
    <rect width="150" height="44" fill="white" transform="translate(106 158.133)"/>
    </clipPath>
    <clipPath id="clip6_634_469">
    <rect width="250" height="48.0001" fill="white" transform="translate(16 225.2)"/>
    </clipPath>
    <clipPath id="clip7_634_469">
    <rect width="48" height="48.0001" fill="white" transform="translate(26 225.2)"/>
    </clipPath>
    <clipPath id="clip8_634_469">
    <rect width="150" height="44" fill="white" transform="translate(106 227.2)"/>
    </clipPath>
    </defs>
    </svg>
    